%
M48
M72
T01C0.07874
T02C0.15748
%
T01
X10843Y39043
X10843Y209043
X306118Y208334
X306118Y39043
T02
X300213Y58728
X278559Y58728
X256906Y58728
X235252Y58728
X211630Y58728
X189976Y58728
X168323Y58728
X146669Y58728
X125016Y58728
X103362Y58728
X81709Y58728
X60055Y58728
X38402Y58728
X16748Y58728
X27575Y80381
X49228Y80381
X70882Y80381
X92535Y80381
X114189Y80381
X135843Y80381
X157496Y80381
X179150Y80381
X200803Y80381
X224425Y80381
X246079Y80381
X267732Y80381
X289386Y80381
X300213Y102035
X278559Y102035
X256906Y102035
X235252Y102035
X211630Y102035
X189976Y102035
X168323Y102035
X146669Y102035
X125016Y102035
X103362Y102035
X81709Y102035
X60055Y102035
X38402Y102035
X16748Y102035
X27575Y123688
X49228Y123688
X70882Y123688
X92535Y123688
X114189Y123688
X135843Y123688
X157496Y123688
X179150Y123688
X200803Y123688
X224425Y123688
X246079Y123688
X267732Y123688
X289386Y123688
X300213Y145342
X278559Y145342
X256906Y145342
X235252Y145342
X211630Y145342
X189976Y145342
X168323Y145342
X146669Y145342
X125016Y145342
X103362Y145342
X81709Y145342
X60055Y145342
X38402Y145342
X16748Y145342
X27575Y166995
X49228Y166995
X70882Y166995
X92535Y166995
X114189Y166995
X135843Y166995
X157496Y166995
X179150Y166995
X200803Y166995
X224425Y166995
X246079Y166995
X267732Y166995
X289386Y166995
X300213Y188649
X278559Y188649
X256906Y188649
X235252Y188649
X211630Y188649
X189976Y188649
X168323Y188649
X146669Y188649
X125016Y188649
X103362Y188649
X81709Y188649
X60055Y188649
X38402Y188649
X16748Y188649
M30
