<?xml version="1.0" encoding="utf-8"?>
<!-- Generator: Adobe Illustrator 16.2.1, SVG Export Plug-In . SVG Version: 6.00 Build 0)  -->
<!DOCTYPE svg PUBLIC "-//W3C//DTD SVG 1.1//EN" "http://www.w3.org/Graphics/SVG/1.1/DTD/svg11.dtd">
<svg version="1.1" xmlns="http://www.w3.org/2000/svg" xmlns:xlink="http://www.w3.org/1999/xlink" x="0px" y="0px"
	 width="1700.787px" height="1275.591px" viewBox="0 0 1700.787 1275.591" style="enable-background:new 0 0 1700.787 1275.591;"
	 xml:space="preserve">
<g id="レイヤー_1">
	
		<rect x="14.173" y="34.016" style="fill:none;stroke:#437ABE;stroke-width:0.5;stroke-miterlimit:10;" width="226.771" height="136.063"/>
	
		<rect x="14.173" y="214.017" style="fill:none;stroke:#437ABE;stroke-width:0.5;stroke-miterlimit:10;" width="226.771" height="136.064"/>
</g>
<g id="レイヤー_2">
	<polygon style="fill:none;stroke:#000000;stroke-width:0.5;stroke-miterlimit:10;" points="223.938,189.921 158.74,189.921 
		158.74,155.906 14.174,155.906 14.174,48.189 158.74,48.189 158.74,14.173 223.938,14.173 240.945,28.347 240.945,175.749 	"/>
	<polygon style="fill:none;stroke:#000000;stroke-width:0.5;stroke-miterlimit:10;" points="223.938,369.922 31.181,369.922 
		14.174,355.749 14.174,208.346 31.181,194.173 223.938,194.173 240.945,208.346 240.945,355.749 	"/>
	<polygon style="fill:none;stroke:#000000;stroke-width:0.5;stroke-miterlimit:10;" points="240.945,425.196 212.599,425.196 
		212.599,430.866 184.819,430.866 184.819,425.196 70.299,425.196 70.299,430.866 42.52,430.866 42.52,425.196 14.173,425.196 
		14.173,413.857 155.905,413.857 155.905,402.52 184.819,402.52 184.819,396.851 212.599,396.851 212.599,402.52 240.945,402.52 	
		"/>
	<polygon style="fill:none;stroke:#000000;stroke-width:0.5;stroke-miterlimit:10;" points="14.174,379.842 42.52,379.842 
		42.52,374.173 70.299,374.173 70.299,379.842 184.819,379.842 184.819,374.173 212.599,374.173 212.599,379.842 240.945,379.842 
		240.945,391.181 99.213,391.181 99.213,402.52 70.299,402.52 70.299,408.188 42.52,408.188 42.52,402.52 14.174,402.52 	"/>
</g>
<g id="レイヤー_4">
	
		<rect x="184.251" y="26.929" style="fill:none;stroke:#DCB316;stroke-width:0.5;stroke-miterlimit:10;" width="28.347" height="5.953"/>
	
		<rect x="184.252" y="171.213" style="fill:none;stroke:#DCB316;stroke-width:0.5;stroke-miterlimit:10;" width="28.347" height="5.952"/>
	
		<rect x="184.252" y="206.928" style="fill:none;stroke:#DCB316;stroke-width:0.5;stroke-miterlimit:10;" width="28.347" height="5.955"/>
	
		<rect x="184.252" y="351.213" style="fill:none;stroke:#DCB316;stroke-width:0.5;stroke-miterlimit:10;" width="28.347" height="5.953"/>
	
		<rect x="42.521" y="206.928" style="fill:none;stroke:#DCB316;stroke-width:0.5;stroke-miterlimit:10;" width="28.347" height="5.955"/>
	
		<rect x="42.521" y="351.213" style="fill:none;stroke:#DCB316;stroke-width:0.5;stroke-miterlimit:10;" width="28.347" height="5.953"/>
	<path style="fill:none;stroke:#DCB316;stroke-width:0.5;stroke-linecap:round;stroke-miterlimit:10;" d="M65.477,105.315
		l4.315,1.368c-0.661,2.406-1.762,4.194-3.301,5.361c-1.539,1.169-3.491,1.752-5.857,1.752c-2.928,0-5.334-1-7.219-3
		c-1.886-2-2.827-4.734-2.827-8.204c0-3.669,0.947-6.519,2.842-8.549c1.896-2.03,4.386-3.046,7.475-3.046
		c2.697,0,4.888,0.797,6.572,2.392c1.002,0.942,1.754,2.296,2.256,4.061l-4.406,1.053c-0.262-1.144-0.805-2.046-1.632-2.707
		c-0.827-0.662-1.833-0.993-3.016-0.993c-1.635,0-2.961,0.587-3.978,1.76c-1.019,1.173-1.526,3.073-1.526,5.7
		c0,2.787,0.501,4.772,1.504,5.955c1.002,1.184,2.306,1.774,3.91,1.774c1.183,0,2.2-0.376,3.053-1.128
		C64.493,108.112,65.105,106.929,65.477,105.315z"/>
	<path style="fill:none;stroke:#DCB316;stroke-width:0.5;stroke-linecap:round;stroke-miterlimit:10;" d="M74.397,113.42V91.374
		h4.451v8.678h8.723v-8.678h4.452v22.047h-4.452v-9.64h-8.723v9.64H74.397z"/>
	<path style="fill:none;stroke:#DCB316;stroke-width:0.5;stroke-linecap:round;stroke-miterlimit:10;" d="M97.26,113.42V91.374
		h4.451v22.047H97.26z"/>
	<path style="fill:none;stroke:#DCB316;stroke-width:0.5;stroke-linecap:round;stroke-miterlimit:10;" d="M111.189,100.698h3.293
		c2.136,0,3.469-0.09,4.001-0.271c0.53-0.181,0.947-0.491,1.248-0.933s0.451-0.992,0.451-1.654c0-0.742-0.198-1.341-0.595-1.797
		c-0.396-0.456-0.954-0.745-1.677-0.865c-0.36-0.05-1.443-0.075-3.248-0.075h-3.474h-4.452v-3.729h9.369
		c2.356,0,4.068,0.198,5.136,0.594c1.068,0.396,1.923,1.101,2.564,2.113s0.963,2.171,0.963,3.474c0,1.654-0.487,3.021-1.459,4.099
		c-0.973,1.078-2.427,1.758-4.361,2.038c0.963,0.562,1.757,1.178,2.384,1.85c0.626,0.672,1.471,1.864,2.534,3.579l2.691,4.301
		h-5.323l-3.219-4.797c-1.143-1.715-1.925-2.795-2.346-3.241c-0.421-0.445-0.868-0.752-1.339-0.917
		c-0.472-0.166-1.218-0.248-2.24-0.248h-0.902v9.203h-4.452v-12.724L111.189,100.698z"/>
	<path style="fill:none;stroke:#DCB316;stroke-width:0.5;stroke-linecap:round;stroke-miterlimit:10;" d="M129.6,113.42V91.374
		h4.451v22.047H129.6z"/>
	<path style="fill:none;stroke:#DCB316;stroke-width:0.5;stroke-linecap:round;stroke-miterlimit:10;" d="M139.002,113.42V91.374
		h6.662l4.001,15.039l3.955-15.039h6.678v22.047h-4.136V96.066l-4.377,17.354h-4.286l-4.361-17.354v17.354H139.002z"/>
	<path style="fill:none;stroke:#DCB316;stroke-width:0.5;stroke-linecap:round;stroke-miterlimit:10;" d="M165.489,113.42V91.374
		h16.348v3.729H169.94v4.888h11.069v3.715H169.94v6.001h12.317v3.714H165.489z"/>
	<path style="fill:none;stroke:#DCB316;stroke-width:0.5;stroke-linecap:round;stroke-miterlimit:10;" d="M186.848,113.42V91.374
		h4.331l9.023,14.724V91.374h4.136v22.047h-4.466l-8.889-14.377v14.377H186.848z"/>
	
		<rect x="85.04" y="255.119" style="fill:none;stroke:#DCB316;stroke-width:0.5;stroke-miterlimit:10;" width="5.669" height="53.859"/>
	
		<rect x="96.377" y="255.119" style="fill:none;stroke:#DCB316;stroke-width:0.5;stroke-miterlimit:10;" width="5.67" height="53.859"/>
	
		<rect x="107.716" y="255.119" style="fill:none;stroke:#DCB316;stroke-width:0.5;stroke-miterlimit:10;" width="5.67" height="53.859"/>
	
		<rect x="119.054" y="255.119" style="fill:none;stroke:#DCB316;stroke-width:0.5;stroke-miterlimit:10;" width="5.67" height="53.859"/>
	
		<rect x="164.407" y="255.119" style="fill:none;stroke:#DCB316;stroke-width:0.5;stroke-miterlimit:10;" width="5.67" height="53.859"/>
	
		<rect x="153.069" y="255.119" style="fill:none;stroke:#DCB316;stroke-width:0.5;stroke-miterlimit:10;" width="5.67" height="53.859"/>
	
		<rect x="130.392" y="255.119" style="fill:none;stroke:#DCB316;stroke-width:0.5;stroke-miterlimit:10;" width="5.67" height="53.859"/>
	
		<rect x="141.73" y="255.119" style="fill:none;stroke:#DCB316;stroke-width:0.5;stroke-miterlimit:10;" width="5.67" height="53.859"/>
	<g>
		<path style="fill:none;stroke:#DCB316;stroke-width:0.5;stroke-miterlimit:10;" d="M165.827,56.693
			c-1.566,0-2.835-1.27-2.835-2.835s1.269-2.834,2.835-2.834"/>
		<path style="fill:none;stroke:#DCB316;stroke-width:0.5;stroke-miterlimit:10;" d="M165.827,51.024
			c1.565,0,2.834,1.269,2.834,2.834s-1.269,2.835-2.834,2.835"/>
	</g>
	<g>
		<path style="fill:none;stroke:#DCB316;stroke-width:0.5;stroke-miterlimit:10;" d="M234.425,43.087
			c-1.723,0-3.118-1.396-3.118-3.119c0-1.722,1.396-3.118,3.118-3.118"/>
		<path style="fill:none;stroke:#DCB316;stroke-width:0.5;stroke-miterlimit:10;" d="M234.425,36.851
			c1.723,0,3.118,1.396,3.118,3.118c0,1.722-1.396,3.119-3.118,3.119"/>
	</g>
	<g>
		<path style="fill:none;stroke:#DCB316;stroke-width:0.5;stroke-miterlimit:10;" d="M234.426,223.087
			c-1.723,0-3.119-1.396-3.119-3.117c0-1.722,1.396-3.118,3.119-3.118"/>
		<path style="fill:none;stroke:#DCB316;stroke-width:0.5;stroke-miterlimit:10;" d="M234.426,216.852
			c1.721,0,3.117,1.396,3.117,3.118c0,1.721-1.396,3.117-3.117,3.117"/>
	</g>
	<g>
		<path style="fill:none;stroke:#DCB316;stroke-width:0.5;stroke-miterlimit:10;" d="M22.111,346.395
			c-1.723,0-3.119-1.396-3.119-3.119c0-1.722,1.396-3.117,3.119-3.117"/>
		<path style="fill:none;stroke:#DCB316;stroke-width:0.5;stroke-miterlimit:10;" d="M22.111,340.158
			c1.722,0,3.118,1.396,3.118,3.117c0,1.723-1.396,3.119-3.118,3.119"/>
	</g>
	<g>
		<path style="fill:none;stroke:#DCB316;stroke-width:0.5;stroke-miterlimit:10;" d="M234.425,346.395
			c-1.723,0-3.118-1.396-3.118-3.118s1.396-3.118,3.118-3.118"/>
		<path style="fill:none;stroke:#DCB316;stroke-width:0.5;stroke-miterlimit:10;" d="M234.425,340.158
			c1.723,0,3.118,1.396,3.118,3.118s-1.396,3.118-3.118,3.118"/>
	</g>
	<g>
		<path style="fill:none;stroke:#DCB316;stroke-width:0.5;stroke-miterlimit:10;" d="M22.111,224.505
			c-1.723,0-3.119-1.396-3.119-3.119c0-1.722,1.396-3.117,3.119-3.117"/>
		<path style="fill:none;stroke:#DCB316;stroke-width:0.5;stroke-miterlimit:10;" d="M22.111,218.269
			c1.722,0,3.118,1.396,3.118,3.117c0,1.723-1.396,3.119-3.118,3.119"/>
	</g>
	<g>
		<path style="fill:none;stroke:#DCB316;stroke-width:0.5;stroke-miterlimit:10;" d="M168.947,26.079
			c-1.723,0-3.118-1.396-3.118-3.119c0-1.722,1.396-3.118,3.118-3.118"/>
		<path style="fill:none;stroke:#DCB316;stroke-width:0.5;stroke-miterlimit:10;" d="M168.947,19.843
			c1.723,0,3.118,1.396,3.118,3.118c0,1.722-1.396,3.119-3.118,3.119"/>
	</g>
	<g>
		<path style="fill:none;stroke:#DCB316;stroke-width:0.5;stroke-miterlimit:10;" d="M168.947,183.403
			c-1.723,0-3.118-1.396-3.118-3.119c0-1.722,1.396-3.118,3.118-3.118"/>
		<path style="fill:none;stroke:#DCB316;stroke-width:0.5;stroke-miterlimit:10;" d="M168.947,177.167
			c1.723,0,3.118,1.396,3.118,3.118c0,1.722-1.396,3.119-3.118,3.119"/>
	</g>
	<g>
		<path style="fill:none;stroke:#DCB316;stroke-width:0.5;stroke-miterlimit:10;" d="M168.947,206.08
			c-1.723,0-3.118-1.396-3.118-3.119c0-1.722,1.396-3.118,3.118-3.118"/>
		<path style="fill:none;stroke:#DCB316;stroke-width:0.5;stroke-miterlimit:10;" d="M168.947,199.844
			c1.723,0,3.118,1.396,3.118,3.118c0,1.722-1.396,3.119-3.118,3.119"/>
	</g>
	<g>
		<path style="fill:none;stroke:#DCB316;stroke-width:0.5;stroke-miterlimit:10;" d="M168.947,363.399
			c-1.723,0-3.118-1.396-3.118-3.118s1.396-3.118,3.118-3.118"/>
		<path style="fill:none;stroke:#DCB316;stroke-width:0.5;stroke-miterlimit:10;" d="M168.947,357.163
			c1.723,0,3.118,1.396,3.118,3.118s-1.396,3.118-3.118,3.118"/>
	</g>
</g>
<g id="レイヤー_3">
</g>
</svg>
