<?xml version="1.0" encoding="utf-8"?>
<!-- Generator: Adobe Illustrator 16.2.1, SVG Export Plug-In . SVG Version: 6.00 Build 0)  -->
<!DOCTYPE svg PUBLIC "-//W3C//DTD SVG 1.1//EN" "http://www.w3.org/Graphics/SVG/1.1/DTD/svg11.dtd">
<svg version="1.1" xmlns="http://www.w3.org/2000/svg" xmlns:xlink="http://www.w3.org/1999/xlink" x="0px" y="0px"
	 width="841.89px" height="595.28px" viewBox="0 0 841.89 595.28" style="enable-background:new 0 0 841.89 595.28;"
	 xml:space="preserve">
<g id="レイヤー_1" style="display:none;">
	
		<rect x="325.039" y="183.793" style="display:inline;fill:none;stroke:#437ABD;stroke-width:0.5;stroke-miterlimit:10;" width="136.064" height="226.771"/>
	<polygon style="display:inline;fill:none;stroke:#231815;stroke-width:0.5;stroke-miterlimit:10;" points="217.542,411.246 
		217.542,382.898 211.872,382.898 211.872,355.119 217.542,355.119 217.542,240.6 211.872,240.6 211.872,212.82 217.542,212.82 
		217.542,184.474 228.881,184.474 228.881,326.205 240.219,326.205 240.219,355.119 245.888,355.119 245.888,382.898 
		240.219,382.898 240.219,411.246 	"/>
	<polygon style="display:inline;fill:none;stroke:#231815;stroke-width:0.5;stroke-miterlimit:10;" points="262.896,184.474 
		262.896,212.82 268.565,212.82 268.565,240.6 262.896,240.6 262.896,355.119 268.565,355.119 268.565,382.898 262.896,382.898 
		262.896,411.246 251.558,411.246 251.558,269.513 240.219,269.513 240.219,240.6 234.55,240.6 234.55,212.82 240.219,212.82 
		240.219,184.474 	"/>
	<g style="display:inline;">
		<polygon style="fill:none;stroke:#231815;stroke-width:0.5;stroke-miterlimit:10;" points="546.014,364.307 546.014,299.109 
			580.029,299.109 580.029,154.542 687.746,154.542 687.746,299.109 721.762,299.109 721.762,364.307 707.589,381.314 
			560.188,381.314 		"/>
		
			<rect x="703.053" y="324.619" style="fill:none;stroke:#DBB216;stroke-width:0.5;stroke-miterlimit:10;" width="5.953" height="28.348"/>
		
			<rect x="558.771" y="324.621" style="fill:none;stroke:#DBB216;stroke-width:0.5;stroke-miterlimit:10;" width="5.952" height="28.346"/>
		<path style="fill:none;stroke:#DBB216;stroke-width:0.5;stroke-linecap:round;stroke-miterlimit:10;" d="M630.621,205.845
			l-1.369,4.315c-2.406-0.661-4.193-1.762-5.361-3.301s-1.752-3.491-1.752-5.857c0-2.928,1-5.334,3-7.219
			c2-1.886,4.734-2.827,8.205-2.827c3.668,0,6.518,0.947,8.549,2.842c2.029,1.896,3.045,4.386,3.045,7.475
			c0,2.697-0.797,4.888-2.391,6.572c-0.943,1.002-2.297,1.754-4.061,2.256l-1.053-4.406c1.143-0.262,2.045-0.805,2.707-1.632
			s0.992-1.833,0.992-3.016c0-1.635-0.586-2.961-1.76-3.978c-1.172-1.019-3.072-1.526-5.699-1.526c-2.787,0-4.773,0.501-5.955,1.504
			c-1.184,1.002-1.775,2.306-1.775,3.91c0,1.183,0.377,2.2,1.129,3.053C627.824,204.862,629.006,205.474,630.621,205.845z"/>
		<path style="fill:none;stroke:#DBB216;stroke-width:0.5;stroke-linecap:round;stroke-miterlimit:10;" d="M622.516,214.766h22.047
			v4.451h-8.678v8.723h8.678v4.452h-22.047v-4.452h9.639v-8.723h-9.639V214.766z"/>
		<path style="fill:none;stroke:#DBB216;stroke-width:0.5;stroke-linecap:round;stroke-miterlimit:10;" d="M622.516,237.628h22.047
			v4.451h-22.047V237.628z"/>
		<path style="fill:none;stroke:#DBB216;stroke-width:0.5;stroke-linecap:round;stroke-miterlimit:10;" d="M635.238,251.558v3.293
			c0,2.136,0.09,3.469,0.27,4.001c0.182,0.53,0.492,0.947,0.934,1.248s0.992,0.451,1.654,0.451c0.742,0,1.34-0.198,1.797-0.595
			c0.455-0.396,0.744-0.954,0.865-1.677c0.049-0.36,0.074-1.443,0.074-3.248v-3.474v-4.452h3.73v9.369
			c0,2.356-0.199,4.068-0.594,5.136c-0.396,1.068-1.102,1.923-2.113,2.564c-1.014,0.642-2.172,0.963-3.475,0.963
			c-1.654,0-3.021-0.487-4.098-1.459c-1.078-0.973-1.758-2.427-2.039-4.361c-0.561,0.963-1.178,1.757-1.85,2.384
			c-0.672,0.626-1.863,1.471-3.578,2.534l-4.301,2.691v-5.323l4.797-3.219c1.715-1.143,2.795-1.925,3.24-2.346
			s0.752-0.868,0.918-1.339c0.166-0.472,0.248-1.218,0.248-2.24v-0.902h-9.203v-4.452h12.723V251.558z"/>
		<path style="fill:none;stroke:#DBB216;stroke-width:0.5;stroke-linecap:round;stroke-miterlimit:10;" d="M622.516,269.969h22.047
			v4.451h-22.047V269.969z"/>
		<path style="fill:none;stroke:#DBB216;stroke-width:0.5;stroke-linecap:round;stroke-miterlimit:10;" d="M622.516,279.371h22.047
			v6.662l-15.039,4l15.039,3.955v6.678h-22.047v-4.135h17.354l-17.354-4.377v-4.287l17.354-4.361h-17.354V279.371z"/>
		<path style="fill:none;stroke:#DBB216;stroke-width:0.5;stroke-linecap:round;stroke-miterlimit:10;" d="M622.516,305.857h22.047
			v16.348h-3.73v-11.896h-4.887v11.07h-3.715v-11.07h-6.002v12.318h-3.713V305.857z"/>
		<path style="fill:none;stroke:#DBB216;stroke-width:0.5;stroke-linecap:round;stroke-miterlimit:10;" d="M622.516,327.217h22.047
			v4.33l-14.725,9.023h14.725v4.137h-22.047v-4.467l14.377-8.889h-14.377V327.217z"/>
		<g>
			<path style="fill:none;stroke:#DBB216;stroke-width:0.5;stroke-miterlimit:10;" d="M679.242,306.195
				c0-1.566,1.27-2.834,2.835-2.834s2.835,1.268,2.835,2.834"/>
			<path style="fill:none;stroke:#DBB216;stroke-width:0.5;stroke-miterlimit:10;" d="M684.912,306.195
				c0,1.566-1.27,2.834-2.835,2.834s-2.835-1.268-2.835-2.834"/>
		</g>
		<g>
			<path style="fill:none;stroke:#DBB216;stroke-width:0.5;stroke-miterlimit:10;" d="M692.849,374.793
				c0-1.723,1.396-3.117,3.118-3.117c1.723,0,3.118,1.395,3.118,3.117"/>
			<path style="fill:none;stroke:#DBB216;stroke-width:0.5;stroke-miterlimit:10;" d="M699.085,374.793
				c0,1.723-1.396,3.119-3.118,3.119c-1.722,0-3.118-1.396-3.118-3.119"/>
		</g>
		<g>
			<path style="fill:none;stroke:#DBB216;stroke-width:0.5;stroke-miterlimit:10;" d="M709.856,309.316
				c0-1.723,1.396-3.119,3.118-3.119c1.723,0,3.118,1.396,3.118,3.119"/>
			<path style="fill:none;stroke:#DBB216;stroke-width:0.5;stroke-miterlimit:10;" d="M716.093,309.316
				c0,1.723-1.396,3.117-3.118,3.117c-1.722,0-3.118-1.395-3.118-3.117"/>
		</g>
		<g>
			<path style="fill:none;stroke:#DBB216;stroke-width:0.5;stroke-miterlimit:10;" d="M552.532,309.316
				c0-1.723,1.396-3.119,3.118-3.119c1.723,0,3.118,1.396,3.118,3.119"/>
			<path style="fill:none;stroke:#DBB216;stroke-width:0.5;stroke-miterlimit:10;" d="M558.769,309.316
				c0,1.723-1.396,3.117-3.118,3.117c-1.722,0-3.118-1.395-3.118-3.117"/>
		</g>
	</g>
	<g style="display:inline;">
		<polygon style="fill:none;stroke:#231815;stroke-width:0.5;stroke-miterlimit:10;" points="272.816,394.238 272.816,201.481 
			286.989,184.474 434.393,184.474 448.565,201.481 448.565,394.238 434.393,411.246 286.989,411.246 		"/>
		
			<rect x="429.855" y="354.553" style="fill:none;stroke:#DBB216;stroke-width:0.5;stroke-miterlimit:10;" width="5.955" height="28.346"/>
		
			<rect x="285.572" y="354.553" style="fill:none;stroke:#DBB216;stroke-width:0.5;stroke-miterlimit:10;" width="5.953" height="28.346"/>
		
			<rect x="429.855" y="212.821" style="fill:none;stroke:#DBB216;stroke-width:0.5;stroke-miterlimit:10;" width="5.955" height="28.347"/>
		
			<rect x="285.572" y="212.821" style="fill:none;stroke:#DBB216;stroke-width:0.5;stroke-miterlimit:10;" width="5.953" height="28.347"/>
		
			<rect x="333.76" y="255.34" style="fill:none;stroke:#DBB216;stroke-width:0.5;stroke-miterlimit:10;" width="53.859" height="5.669"/>
		
			<rect x="333.76" y="266.678" style="fill:none;stroke:#DBB216;stroke-width:0.5;stroke-miterlimit:10;" width="53.859" height="5.67"/>
		
			<rect x="333.76" y="278.016" style="fill:none;stroke:#DBB216;stroke-width:0.5;stroke-miterlimit:10;" width="53.859" height="5.67"/>
		
			<rect x="333.76" y="289.354" style="fill:none;stroke:#DBB216;stroke-width:0.5;stroke-miterlimit:10;" width="53.859" height="5.67"/>
		
			<rect x="333.76" y="334.707" style="fill:none;stroke:#DBB216;stroke-width:0.5;stroke-miterlimit:10;" width="53.859" height="5.67"/>
		
			<rect x="333.76" y="323.369" style="fill:none;stroke:#DBB216;stroke-width:0.5;stroke-miterlimit:10;" width="53.859" height="5.67"/>
		
			<rect x="333.76" y="300.693" style="fill:none;stroke:#DBB216;stroke-width:0.5;stroke-miterlimit:10;" width="53.859" height="5.67"/>
		
			<rect x="333.76" y="312.031" style="fill:none;stroke:#DBB216;stroke-width:0.5;stroke-miterlimit:10;" width="53.859" height="5.67"/>
		<g>
			<path style="fill:none;stroke:#DBB216;stroke-width:0.5;stroke-miterlimit:10;" d="M419.651,404.727
				c0-1.723,1.396-3.119,3.117-3.119c1.722,0,3.118,1.396,3.118,3.119"/>
			<path style="fill:none;stroke:#DBB216;stroke-width:0.5;stroke-miterlimit:10;" d="M425.887,404.727
				c0,1.721-1.396,3.117-3.118,3.117c-1.721,0-3.117-1.396-3.117-3.117"/>
		</g>
		<g>
			<path style="fill:none;stroke:#DBB216;stroke-width:0.5;stroke-miterlimit:10;" d="M296.344,192.411
				c0-1.723,1.396-3.119,3.119-3.119c1.722,0,3.117,1.396,3.117,3.119"/>
			<path style="fill:none;stroke:#DBB216;stroke-width:0.5;stroke-miterlimit:10;" d="M302.58,192.411
				c0,1.722-1.396,3.118-3.117,3.118c-1.723,0-3.119-1.396-3.119-3.118"/>
		</g>
		<g>
			<path style="fill:none;stroke:#DBB216;stroke-width:0.5;stroke-miterlimit:10;" d="M296.344,404.725
				c0-1.723,1.396-3.117,3.118-3.117s3.118,1.395,3.118,3.117"/>
			<path style="fill:none;stroke:#DBB216;stroke-width:0.5;stroke-miterlimit:10;" d="M302.58,404.725
				c0,1.723-1.396,3.119-3.118,3.119s-3.118-1.396-3.118-3.119"/>
		</g>
		<g>
			<path style="fill:none;stroke:#DBB216;stroke-width:0.5;stroke-miterlimit:10;" d="M418.233,192.411
				c0-1.723,1.396-3.119,3.119-3.119c1.722,0,3.117,1.396,3.117,3.119"/>
			<path style="fill:none;stroke:#DBB216;stroke-width:0.5;stroke-miterlimit:10;" d="M424.47,192.411
				c0,1.722-1.396,3.118-3.117,3.118c-1.723,0-3.119-1.396-3.119-3.118"/>
		</g>
		<g>
			<path style="fill:none;stroke:#DBB216;stroke-width:0.5;stroke-miterlimit:10;" d="M436.658,339.248
				c0-1.723,1.396-3.119,3.119-3.119c1.721,0,3.117,1.396,3.117,3.119"/>
			<path style="fill:none;stroke:#DBB216;stroke-width:0.5;stroke-miterlimit:10;" d="M442.895,339.248
				c0,1.723-1.396,3.117-3.117,3.117c-1.723,0-3.119-1.395-3.119-3.117"/>
		</g>
		<g>
			<path style="fill:none;stroke:#DBB216;stroke-width:0.5;stroke-miterlimit:10;" d="M279.339,339.248
				c0-1.723,1.396-3.119,3.118-3.119s3.118,1.396,3.118,3.119"/>
			<path style="fill:none;stroke:#DBB216;stroke-width:0.5;stroke-miterlimit:10;" d="M285.575,339.248
				c0,1.723-1.396,3.117-3.118,3.117s-3.118-1.395-3.118-3.117"/>
		</g>
	</g>
</g>
<g id="BOTTOM">
	<g>
		<path style="fill:#FFFFFF;" d="M193.67,74.479l20.717,1.412l135.146,101.357l1.763,14.543l-102.714,77.035l-20.716-1.413
			L92.723,166.053l-1.763-14.542L193.67,74.479 M193.065,72.433L88.835,150.605l2.005,16.536L227.14,269.369l22.048,1.504
			l104.232-78.175l-2.004-16.538L215.114,73.936L193.065,72.433L193.065,72.433z"/>
		<polygon style="fill:none;stroke:#727171;stroke-width:0.5;" points="227.14,269.369 90.84,167.141 88.835,150.605 
			193.065,72.433 215.114,73.936 351.417,176.161 353.42,192.698 249.188,270.873 		"/>
	</g>
	<g>
		<path style="fill:#FFFFFF;" d="M314.334,164.379l16.71,12.533l-0.878,0.658l-16.71-12.533L314.334,164.379 M314.334,161.879
			l-4.211,3.158l20.043,15.033l4.211-3.158L314.334,161.879L314.334,161.879z"/>
		<polygon style="fill:none;stroke:#727171;stroke-width:0.5;" points="330.167,180.07 310.123,165.037 314.334,161.879 
			334.377,176.912 		"/>
	</g>
	<g>
		<path style="fill:#FFFFFF;" d="M212.307,240.899l16.71,12.534l-0.876,0.657l-16.71-12.534L212.307,240.899 M212.307,238.399
			l-4.209,3.157l20.043,15.034l4.209-3.158L212.307,238.399L212.307,238.399z"/>
		<polygon style="fill:none;stroke:#727171;stroke-width:0.5;" points="228.141,256.59 208.098,241.556 212.307,238.399 
			232.351,253.433 		"/>
	</g>
	<g>
		<path style="fill:#FFFFFF;" d="M214.112,89.214l16.711,12.534l-0.877,0.658l-16.711-12.534L214.112,89.214 M214.112,86.714
			l-4.211,3.158l20.045,15.034l4.211-3.158L214.112,86.714L214.112,86.714z"/>
		<polygon style="fill:none;stroke:#727171;stroke-width:0.5;" points="229.946,104.906 209.901,89.872 214.112,86.714 
			234.157,101.748 		"/>
	</g>
	<g>
		<path style="fill:#FFFFFF;" d="M210.101,137.321l0.675,0.506l-34.75,26.063l-0.675-0.507L210.101,137.321 M210.101,134.821
			l-38.084,28.562l4.009,3.007l38.084-28.563L210.101,134.821L210.101,134.821z"/>
		<polygon style="fill:none;stroke:#727171;stroke-width:0.5;" points="176.026,166.39 172.017,163.383 210.101,134.821 
			214.11,137.827 		"/>
	</g>
	<g>
		<path style="fill:#FFFFFF;" d="M218.118,143.333l0.676,0.507l-34.75,26.062l-0.676-0.506L218.118,143.333 M218.118,140.833
			l-38.084,28.563l4.009,3.006l38.084-28.562L218.118,140.833L218.118,140.833z"/>
		<polygon style="fill:none;stroke:#727171;stroke-width:0.5;" points="184.043,172.403 180.034,169.396 218.118,140.833 
			222.127,143.84 		"/>
	</g>
	<g>
		<path style="fill:#FFFFFF;" d="M226.135,149.346l0.676,0.507l-34.75,26.063l-0.676-0.508L226.135,149.346 M226.135,146.846
			l-38.084,28.562l4.009,3.008l38.084-28.563L226.135,146.846L226.135,146.846z"/>
		<polygon style="fill:none;stroke:#727171;stroke-width:0.5;" points="192.061,178.417 188.051,175.409 226.135,146.846 
			230.145,149.853 		"/>
	</g>
	<g>
		<path style="fill:#FFFFFF;" d="M234.153,155.36l0.676,0.507l-34.75,26.063l-0.676-0.508L234.153,155.36 M234.153,152.86
			l-38.084,28.562l4.009,3.008l38.084-28.563L234.153,152.86L234.153,152.86z"/>
		<polygon style="fill:none;stroke:#727171;stroke-width:0.5;" points="200.079,184.43 196.069,181.422 234.153,152.86 
			238.163,155.867 		"/>
	</g>
	<g>
		<path style="fill:#FFFFFF;" d="M266.223,179.412l0.676,0.507l-34.751,26.064l-0.676-0.508L266.223,179.412 M266.223,176.912
			l-38.085,28.563l4.009,3.008l38.084-28.564L266.223,176.912L266.223,176.912z"/>
		<polygon style="fill:none;stroke:#727171;stroke-width:0.5;" points="232.147,208.483 228.138,205.475 266.223,176.912 
			270.232,179.918 		"/>
	</g>
	<g>
		<path style="fill:#FFFFFF;" d="M258.205,173.399l0.677,0.507l-34.751,26.063l-0.676-0.507L258.205,173.399 M258.205,170.898
			l-38.084,28.563l4.009,3.007l38.084-28.563L258.205,170.898L258.205,170.898z"/>
		<polygon style="fill:none;stroke:#727171;stroke-width:0.5;" points="224.13,202.469 220.121,199.462 258.205,170.898 
			262.215,173.906 		"/>
	</g>
	<g>
		<path style="fill:#FFFFFF;" d="M242.171,161.373l0.676,0.507l-34.75,26.063l-0.676-0.507L242.171,161.373 M242.171,158.873
			l-38.084,28.563l4.009,3.007l38.084-28.563L242.171,158.873L242.171,158.873z"/>
		<polygon style="fill:none;stroke:#727171;stroke-width:0.5;" points="208.096,190.443 204.087,187.437 242.171,158.873 
			246.18,161.88 		"/>
	</g>
	<g>
		<path style="fill:#FFFFFF;" d="M250.188,167.386l0.676,0.507l-34.75,26.063l-0.676-0.507L250.188,167.386 M250.188,164.886
			l-38.084,28.563l4.009,3.007l38.084-28.563L250.188,164.886L250.188,164.886z"/>
		<polygon style="fill:none;stroke:#727171;stroke-width:0.5;" points="216.113,196.456 212.104,193.449 250.188,164.886 
			254.197,167.893 		"/>
	</g>
	<g>
		<path style="fill:none;stroke:#FFFFFF;stroke-width:2;" d="M338.388,197.058c-1.219-0.914-1.219-2.396-0.002-3.308
			s3.192-0.912,4.41,0.001"/>
		<path style="fill:none;stroke:#727171;stroke-width:0.5;" d="M338.388,197.058c-1.219-0.914-1.219-2.396-0.002-3.308
			s3.192-0.912,4.41,0.001"/>
	</g>
	<g>
		<path style="fill:none;stroke:#FFFFFF;stroke-width:2;" d="M342.796,193.751c1.217,0.912,1.217,2.394,0,3.307
			c-1.217,0.912-3.191,0.912-4.408,0"/>
		<path style="fill:none;stroke:#727171;stroke-width:0.5;" d="M342.796,193.751c1.217,0.912,1.217,2.394,0,3.307
			c-1.217,0.912-3.191,0.912-4.408,0"/>
	</g>
	<g>
		<path style="fill:none;stroke:#FFFFFF;stroke-width:2;" d="M101.063,149.854c-1.219-0.914-1.218-2.395,0-3.308
			c1.217-0.913,3.191-0.913,4.41,0.001"/>
		<path style="fill:none;stroke:#727171;stroke-width:0.5;" d="M101.063,149.854c-1.219-0.914-1.218-2.395,0-3.308
			c1.217-0.913,3.191-0.913,4.41,0.001"/>
	</g>
	<g>
		<path style="fill:none;stroke:#FFFFFF;stroke-width:2;" d="M105.473,146.546c1.217,0.913,1.217,2.393,0,3.306
			c-1.218,0.914-3.192,0.914-4.41,0.001"/>
		<path style="fill:none;stroke:#727171;stroke-width:0.5;" d="M105.473,146.546c1.217,0.913,1.217,2.393,0,3.306
			c-1.218,0.914-3.192,0.914-4.41,0.001"/>
	</g>
	<g>
		<path style="fill:none;stroke:#FFFFFF;stroke-width:2;" d="M251.191,262.453c-1.218-0.914-1.217-2.394,0.001-3.307
			c1.217-0.913,3.191-0.914,4.409,0"/>
		<path style="fill:none;stroke:#727171;stroke-width:0.5;" d="M251.191,262.453c-1.218-0.914-1.217-2.394,0.001-3.307
			c1.217-0.913,3.191-0.914,4.409,0"/>
	</g>
	<g>
		<path style="fill:none;stroke:#FFFFFF;stroke-width:2;" d="M255.601,259.146c1.219,0.913,1.219,2.394,0.001,3.307
			c-1.218,0.914-3.192,0.914-4.411,0"/>
		<path style="fill:none;stroke:#727171;stroke-width:0.5;" d="M255.601,259.146c1.219,0.913,1.219,2.394,0.001,3.307
			c-1.218,0.914-3.192,0.914-4.411,0"/>
	</g>
	<g>
		<path style="fill:none;stroke:#FFFFFF;stroke-width:2;" d="M187.252,85.211c-1.219-0.914-1.218-2.395,0-3.309
			c1.217-0.912,3.191-0.913,4.41,0.001"/>
		<path style="fill:none;stroke:#727171;stroke-width:0.5;" d="M187.252,85.211c-1.219-0.914-1.218-2.395,0-3.309
			c1.217-0.912,3.191-0.913,4.41,0.001"/>
	</g>
	<g>
		<path style="fill:none;stroke:#FFFFFF;stroke-width:2;" d="M191.662,81.904c1.217,0.913,1.216,2.394,0,3.306
			c-1.218,0.914-3.192,0.914-4.41,0.001"/>
		<path style="fill:none;stroke:#727171;stroke-width:0.5;" d="M191.662,81.904c1.217,0.913,1.216,2.394,0,3.306
			c-1.218,0.914-3.192,0.914-4.41,0.001"/>
	</g>
	<g>
		<path style="fill:none;stroke:#FFFFFF;stroke-width:2;" d="M304.111,153.313c-1.219-0.914-1.219-2.395,0-3.309
			c1.217-0.913,3.191-0.913,4.409,0.001"/>
		<path style="fill:none;stroke:#727171;stroke-width:0.5;" d="M304.111,153.313c-1.219-0.914-1.219-2.395,0-3.309
			c1.217-0.913,3.191-0.913,4.409,0.001"/>
	</g>
	<g>
		<path style="fill:none;stroke:#FFFFFF;stroke-width:2;" d="M308.52,150.005c1.219,0.914,1.217,2.394,0,3.306
			c-1.218,0.914-3.191,0.915-4.409,0.001"/>
		<path style="fill:none;stroke:#727171;stroke-width:0.5;" d="M308.52,150.005c1.219,0.914,1.217,2.394,0,3.306
			c-1.218,0.914-3.191,0.915-4.409,0.001"/>
	</g>
	<g>
		<path style="fill:none;stroke:#FFFFFF;stroke-width:2;" d="M192.868,236.746c-1.218-0.913-1.218-2.396,0-3.308
			c1.217-0.913,3.192-0.913,4.411,0"/>
		<path style="fill:none;stroke:#231815;stroke-width:0.5;" d="M192.868,236.746c-1.218-0.913-1.218-2.396,0-3.308
			c1.217-0.913,3.192-0.913,4.411,0"/>
	</g>
	<g>
		<path style="fill:none;stroke:#FFFFFF;stroke-width:2;" d="M197.278,233.438c1.218,0.914,1.216,2.395-0.001,3.307
			c-1.217,0.914-3.191,0.914-4.409,0.001"/>
		<path style="fill:none;stroke:#727171;stroke-width:0.5;" d="M197.278,233.438c1.218,0.914,1.216,2.395-0.001,3.307
			c-1.217,0.914-3.191,0.914-4.409,0.001"/>
	</g>
	<g>
		<path style="fill:none;stroke:#FFFFFF;stroke-width:2;" d="M342.796,190.917c1.217,0.912,1.217,2.394,0,3.307
			c-1.217,0.912-3.191,0.912-4.408,0"/>
		<path style="fill:none;stroke:#231815;stroke-width:0.5;" d="M342.796,190.917c1.217,0.912,1.217,2.394,0,3.307
			c-1.217,0.912-3.191,0.912-4.408,0"/>
	</g>
	<g>
		<path style="fill:none;stroke:#FFFFFF;stroke-width:2;" d="M255.601,256.312c1.219,0.914,1.219,2.394,0.001,3.307
			c-1.218,0.914-3.192,0.914-4.411,0"/>
		<path style="fill:none;stroke:#231815;stroke-width:0.5;" d="M255.601,256.312c1.219,0.914,1.219,2.394,0.001,3.307
			c-1.218,0.914-3.192,0.914-4.411,0"/>
	</g>
	<g>
		<path style="fill:none;stroke:#FFFFFF;stroke-width:2;" d="M308.52,147.17c1.219,0.914,1.217,2.394,0,3.306
			c-1.218,0.914-3.191,0.915-4.409,0.001"/>
		<path style="fill:none;stroke:#231815;stroke-width:0.5;" d="M308.52,147.17c1.219,0.914,1.217,2.394,0,3.306
			c-1.218,0.914-3.191,0.915-4.409,0.001"/>
	</g>
	<g>
		<path style="fill:#FFFFFF;" d="M112.088,165.733l16.71,12.533l-0.876,0.657l-16.71-12.533L112.088,165.733 M112.088,163.233
			l-4.209,3.157l20.044,15.033l4.209-3.157L112.088,163.233L112.088,163.233z"/>
		<polygon style="fill:none;stroke:#727171;stroke-width:0.5;" points="127.922,181.423 107.878,166.39 112.088,163.233 
			132.132,178.266 		"/>
	</g>
	<g>
		<path style="fill:#FFFFFF;" d="M193.67,71.644l20.717,1.412l135.146,101.358l1.763,14.543l-102.714,77.035l-20.716-1.413
			L92.723,163.218l-1.763-14.542L193.67,71.644 M193.065,69.598L88.835,147.77l2.005,16.536L227.14,266.535l22.048,1.504
			l104.232-78.174l-2.004-16.538L215.114,71.101L193.065,69.598L193.065,69.598z"/>
		<polygon style="fill:none;stroke:#231815;stroke-width:0.5;" points="227.14,266.535 90.84,164.306 88.835,147.77 193.065,69.598 
			215.114,71.101 351.417,173.327 353.42,189.864 249.188,268.039 		"/>
	</g>
	<g>
		<path style="fill:#FFFFFF;" d="M314.334,161.544l16.71,12.534l-0.878,0.658l-16.71-12.534L314.334,161.544 M314.334,159.044
			l-4.211,3.158l20.043,15.034l4.211-3.158L314.334,159.044L314.334,159.044z"/>
		<polygon style="fill:none;stroke:#231815;stroke-width:0.5;" points="330.167,177.236 310.123,162.202 314.334,159.044 
			334.377,174.078 		"/>
	</g>
	<g>
		<path style="fill:#FFFFFF;" d="M212.307,238.065l16.71,12.534l-0.876,0.657l-16.71-12.534L212.307,238.065 M212.307,235.565
			l-4.209,3.157l20.043,15.034l4.209-3.157L212.307,235.565L212.307,235.565z"/>
		<polygon style="fill:none;stroke:#231815;stroke-width:0.5;" points="228.141,253.756 208.098,238.722 212.307,235.565 
			232.351,250.599 		"/>
	</g>
	<g>
		<path style="fill:#FFFFFF;" d="M214.112,86.379l16.711,12.534l-0.877,0.658l-16.711-12.534L214.112,86.379 M214.112,83.879
			l-4.211,3.158l20.045,15.034l4.211-3.158L214.112,83.879L214.112,83.879z"/>
		<polygon style="fill:none;stroke:#231815;stroke-width:0.5;" points="229.946,102.071 209.901,87.037 214.112,83.879 
			234.157,98.913 		"/>
	</g>
	<g>
		<path style="fill:#FFFFFF;" d="M112.088,162.898l16.711,12.534l-0.876,0.657l-16.711-12.534L112.088,162.898 M112.088,160.398
			l-4.209,3.157l20.044,15.034l4.209-3.157L112.088,160.398L112.088,160.398z"/>
		<polygon style="fill:none;stroke:#231815;stroke-width:0.5;" points="127.922,178.589 107.878,163.555 112.088,160.398 
			132.132,175.432 		"/>
	</g>
	<g>
		<path style="fill:#FFFFFF;" d="M210.101,134.486l0.675,0.506l-34.75,26.063l-0.675-0.507L210.101,134.486 M210.101,131.986
			l-38.084,28.562l4.009,3.007l38.084-28.563L210.101,131.986L210.101,131.986z"/>
		<polygon style="fill:none;stroke:#231815;stroke-width:0.5;" points="176.026,163.555 172.017,160.548 210.101,131.986 
			214.11,134.992 		"/>
	</g>
	<g>
		<path style="fill:#FFFFFF;" d="M218.118,140.499l0.676,0.507l-34.75,26.062l-0.676-0.506L218.118,140.499 M218.118,137.999
			l-38.084,28.563l4.009,3.006l38.084-28.562L218.118,137.999L218.118,137.999z"/>
		<polygon style="fill:none;stroke:#231815;stroke-width:0.5;" points="184.043,169.568 180.034,166.562 218.118,137.999 
			222.127,141.005 		"/>
	</g>
	<g>
		<path style="fill:#FFFFFF;" d="M226.135,146.511l0.676,0.507l-34.75,26.064l-0.676-0.508L226.135,146.511 M226.135,144.011
			l-38.084,28.563l4.009,3.008l38.084-28.564L226.135,144.011L226.135,144.011z"/>
		<polygon style="fill:none;stroke:#231815;stroke-width:0.5;" points="192.061,175.583 188.051,172.575 226.135,144.011 
			230.145,147.018 		"/>
	</g>
	<g>
		<path style="fill:#FFFFFF;" d="M234.153,152.525l0.676,0.507l-34.75,26.064l-0.676-0.508L234.153,152.525 M234.153,150.025
			l-38.084,28.563l4.009,3.008l38.084-28.564L234.153,150.025L234.153,150.025z"/>
		<polygon style="fill:none;stroke:#231815;stroke-width:0.5;" points="200.079,181.596 196.069,178.588 234.153,150.025 
			238.163,153.032 		"/>
	</g>
	<g>
		<path style="fill:#FFFFFF;" d="M266.223,176.578l0.676,0.507l-34.751,26.064l-0.676-0.508L266.223,176.578 M266.223,174.078
			l-38.085,28.563l4.009,3.008l38.084-28.564L266.223,174.078L266.223,174.078z"/>
		<polygon style="fill:none;stroke:#231815;stroke-width:0.5;" points="232.147,205.649 228.138,202.641 266.223,174.078 
			270.232,177.084 		"/>
	</g>
	<g>
		<path style="fill:#FFFFFF;" d="M258.205,170.563l0.677,0.508l-34.751,26.063l-0.676-0.507L258.205,170.563 M258.205,168.063
			l-38.084,28.564l4.009,3.007l38.084-28.563L258.205,168.063L258.205,168.063z"/>
		<polygon style="fill:none;stroke:#231815;stroke-width:0.5;" points="224.13,199.635 220.121,196.628 258.205,168.063 
			262.215,171.071 		"/>
	</g>
	<g>
		<path style="fill:#FFFFFF;" d="M242.171,158.538l0.676,0.507l-34.75,26.064l-0.676-0.507L242.171,158.538 M242.171,156.038
			l-38.084,28.564l4.009,3.007l38.084-28.564L242.171,156.038L242.171,156.038z"/>
		<polygon style="fill:none;stroke:#231815;stroke-width:0.5;" points="208.096,187.609 204.087,184.602 242.171,156.038 
			246.18,159.045 		"/>
	</g>
	<g>
		<path style="fill:#FFFFFF;" d="M250.188,164.551l0.676,0.507l-34.75,26.064l-0.676-0.507L250.188,164.551 M250.188,162.051
			l-38.084,28.564l4.009,3.007l38.084-28.564L250.188,162.051L250.188,162.051z"/>
		<polygon style="fill:none;stroke:#231815;stroke-width:0.5;" points="216.113,193.622 212.104,190.615 250.188,162.051 
			254.197,165.058 		"/>
	</g>
	<g>
		<path style="fill:none;stroke:#FFFFFF;stroke-width:2;" d="M338.388,194.224c-1.219-0.914-1.219-2.396-0.002-3.308
			s3.192-0.912,4.41,0.001"/>
		<path style="fill:none;stroke:#231815;stroke-width:0.5;" d="M338.388,194.224c-1.219-0.914-1.219-2.396-0.002-3.308
			s3.192-0.912,4.41,0.001"/>
	</g>
	<g>
		<path style="fill:none;stroke:#FFFFFF;stroke-width:2;" d="M101.063,147.019c-1.219-0.914-1.218-2.395,0-3.308
			c1.217-0.913,3.191-0.913,4.41,0.001"/>
		<path style="fill:none;stroke:#231815;stroke-width:0.5;" d="M101.063,147.019c-1.219-0.914-1.218-2.395,0-3.308
			c1.217-0.913,3.191-0.913,4.41,0.001"/>
	</g>
	<g>
		<path style="fill:none;stroke:#FFFFFF;stroke-width:2;" d="M105.473,143.711c1.217,0.913,1.217,2.393,0,3.306
			c-1.218,0.914-3.192,0.914-4.41,0.001"/>
		<path style="fill:none;stroke:#231815;stroke-width:0.5;" d="M105.473,143.711c1.217,0.913,1.217,2.393,0,3.306
			c-1.218,0.914-3.192,0.914-4.41,0.001"/>
	</g>
	<g>
		<path style="fill:none;stroke:#FFFFFF;stroke-width:2;" d="M251.191,259.619c-1.218-0.914-1.217-2.394,0.001-3.307
			c1.217-0.913,3.191-0.914,4.409,0"/>
		<path style="fill:none;stroke:#231815;stroke-width:0.5;" d="M251.191,259.619c-1.218-0.914-1.217-2.394,0.001-3.307
			c1.217-0.913,3.191-0.914,4.409,0"/>
	</g>
	<g>
		<path style="fill:none;stroke:#FFFFFF;stroke-width:2;" d="M187.252,82.376c-1.219-0.914-1.218-2.395,0-3.309
			c1.217-0.912,3.191-0.913,4.41,0.001"/>
		<path style="fill:none;stroke:#231815;stroke-width:0.5;" d="M187.252,82.376c-1.219-0.914-1.218-2.395,0-3.309
			c1.217-0.912,3.191-0.913,4.41,0.001"/>
	</g>
	<g>
		<path style="fill:none;stroke:#FFFFFF;stroke-width:2;" d="M191.662,79.069c1.217,0.913,1.216,2.394,0,3.306
			c-1.218,0.914-3.192,0.914-4.41,0.001"/>
		<path style="fill:none;stroke:#231815;stroke-width:0.5;" d="M191.662,79.069c1.217,0.913,1.216,2.394,0,3.306
			c-1.218,0.914-3.192,0.914-4.41,0.001"/>
	</g>
	<g>
		<path style="fill:none;stroke:#FFFFFF;stroke-width:2;" d="M304.111,150.478c-1.219-0.914-1.219-2.395,0-3.309
			c1.217-0.913,3.191-0.913,4.409,0.001"/>
		<path style="fill:none;stroke:#231815;stroke-width:0.5;" d="M304.111,150.478c-1.219-0.914-1.219-2.395,0-3.309
			c1.217-0.913,3.191-0.913,4.409,0.001"/>
	</g>
	<g>
		<path style="fill:none;stroke:#FFFFFF;stroke-width:2;" d="M192.868,233.912c-1.218-0.913-1.218-2.396,0-3.308
			c1.217-0.913,3.192-0.913,4.411,0"/>
		<path style="fill:none;stroke:#231815;stroke-width:0.5;" d="M192.868,233.912c-1.218-0.913-1.218-2.396,0-3.308
			c1.217-0.913,3.192-0.913,4.411,0"/>
	</g>
	<g>
		<path style="fill:none;stroke:#FFFFFF;stroke-width:2;" d="M197.278,230.604c1.218,0.914,1.216,2.395-0.001,3.307
			c-1.217,0.914-3.191,0.914-4.409,0.001"/>
		<path style="fill:none;stroke:#231815;stroke-width:0.5;" d="M197.278,230.604c1.218,0.914,1.216,2.395-0.001,3.307
			c-1.217,0.914-3.191,0.914-4.409,0.001"/>
	</g>
</g>
<g id="ALLOW_1_">
	<g>
		<g>
			<path style="fill:none;stroke:#000000;stroke-linecap:round;stroke-linejoin:round;stroke-miterlimit:10;" d="M320.079,157.482
				c0,0,0-2.842,0-3.79c0-0.947,0.455-1.684,1.596-2.526c1.14-0.842,23.498-15.976,23.498-15.976"/>
			<polyline style="fill:none;stroke:#000000;stroke-linecap:round;stroke-linejoin:round;stroke-miterlimit:10;" points="
				322.473,155.903 320.192,158.325 318.026,156.429 			"/>
		</g>
		<g>
			<path style="fill:none;stroke:#FFFFFF;stroke-width:4;" d="M320.079,157.482c0,0,0-2.842,0-3.79c0-0.947,0.455-1.684,1.596-2.526
				c1.14-0.842,23.498-15.976,23.498-15.976"/>
			<polyline style="fill:none;stroke:#FFFFFF;stroke-width:4;" points="322.473,155.903 320.192,158.325 318.026,156.429 			"/>
		</g>
		<g>
			<path style="fill:none;stroke:#231815;" d="M320.079,157.482c0,0,0-2.842,0-3.79c0-0.947,0.455-1.684,1.596-2.526
				c1.14-0.842,23.498-15.976,23.498-15.976"/>
			<polyline style="fill:none;stroke:#231815;" points="322.473,155.903 320.192,158.325 318.026,156.429 			"/>
		</g>
	</g>
	<g>
		<g>
			<path style="fill:none;stroke:#000000;stroke-linecap:round;stroke-linejoin:round;stroke-miterlimit:10;" d="M205.781,245.53
				c0,0,0-2.842,0-3.791c0-0.947-2.435-0.097-3.611,0.703c-2.166,1.475-20.25,14.5-20.25,14.5"/>
			<polyline style="fill:none;stroke:#000000;stroke-linecap:round;stroke-linejoin:round;stroke-miterlimit:10;" points="
				208.175,243.951 205.895,246.372 203.729,244.478 			"/>
		</g>
		<g>
			<path style="fill:none;stroke:#FFFFFF;stroke-width:4;" d="M205.781,245.53c0,0,0-2.842,0-3.791c0-0.947-2.435-0.097-3.611,0.703
				c-2.166,1.475-20.25,14.5-20.25,14.5"/>
			<polyline style="fill:none;stroke:#FFFFFF;stroke-width:4;" points="208.175,243.951 205.895,246.372 203.729,244.478 			"/>
		</g>
		<g>
			<path style="fill:none;stroke:#231815;" d="M205.781,245.53c0,0,0-2.842,0-3.791c0-0.947-2.435-0.097-3.611,0.703
				c-2.166,1.475-20.25,14.5-20.25,14.5"/>
			<polyline style="fill:none;stroke:#231815;" points="208.175,243.951 205.895,246.372 203.729,244.478 			"/>
		</g>
	</g>
	<g>
		<g>
			<path style="fill:none;stroke:#000000;stroke-linecap:round;stroke-linejoin:round;stroke-miterlimit:10;" d="M220.72,81.042
				c0,0,0-2.842,0-3.79c0-0.947,0.455-1.684,1.596-2.526c1.14-0.842,23.499-15.976,23.499-15.976"/>
			<polyline style="fill:none;stroke:#000000;stroke-linecap:round;stroke-linejoin:round;stroke-miterlimit:10;" points="
				223.113,79.462 220.833,81.884 218.667,79.989 			"/>
		</g>
		<g>
			<path style="fill:none;stroke:#FFFFFF;stroke-width:4;" d="M220.72,81.042c0,0,0-2.842,0-3.79c0-0.947,0.455-1.684,1.596-2.526
				c1.14-0.842,23.499-15.976,23.499-15.976"/>
			<polyline style="fill:none;stroke:#FFFFFF;stroke-width:4;" points="223.113,79.462 220.833,81.884 218.667,79.989 			"/>
		</g>
		<g>
			<path style="fill:none;stroke:#231815;" d="M220.72,81.042c0,0,0-2.842,0-3.79c0-0.947,0.455-1.684,1.596-2.526
				c1.14-0.842,23.499-15.976,23.499-15.976"/>
			<polyline style="fill:none;stroke:#231815;" points="223.113,79.462 220.833,81.884 218.667,79.989 			"/>
		</g>
	</g>
	<g>
		<g>
			<path style="fill:none;stroke:#000000;stroke-linecap:round;stroke-linejoin:round;stroke-miterlimit:10;" d="M105.756,169.76
				c0,0,0-2.843,0-3.791c0-0.948-2.435-0.097-3.611,0.702c-2.166,1.475-20.25,14.502-20.25,14.502"/>
			<polyline style="fill:none;stroke:#000000;stroke-linecap:round;stroke-linejoin:round;stroke-miterlimit:10;" points="
				108.15,168.181 105.87,170.603 103.704,168.708 			"/>
		</g>
		<g>
			<path style="fill:none;stroke:#FFFFFF;stroke-width:4;" d="M105.756,169.76c0,0,0-2.843,0-3.791c0-0.948-2.435-0.097-3.611,0.702
				c-2.166,1.475-20.25,14.502-20.25,14.502"/>
			<polyline style="fill:none;stroke:#FFFFFF;stroke-width:4;" points="108.15,168.181 105.87,170.603 103.704,168.708 			"/>
		</g>
		<g>
			<path style="fill:none;stroke:#231815;" d="M105.756,169.76c0,0,0-2.843,0-3.791c0-0.948-2.435-0.097-3.611,0.702
				c-2.166,1.475-20.25,14.502-20.25,14.502"/>
			<polyline style="fill:none;stroke:#231815;" points="108.15,168.181 105.87,170.603 103.704,168.708 			"/>
		</g>
	</g>
</g>
<g id="CHIRIMEN">
	<g>
		<polygon style="fill:none;stroke:#FFFFFF;stroke-width:2;stroke-miterlimit:10;" points="253.707,256.145 93.354,135.878 
			189.564,63.72 349.92,183.984 		"/>
		<polygon style="fill:none;stroke:#0055BB;stroke-width:0.5;stroke-miterlimit:10;" points="253.707,256.145 93.354,135.878 
			189.564,63.72 349.92,183.984 		"/>
	</g>
	<g>
		<path style="fill:#FFFFFF;" d="M189.564,64.803l157.023,117.764l-92.88,69.661L96.688,134.46L189.564,64.803 M189.564,62.303
			l-96.21,72.158l160.353,120.267l96.213-72.161L189.564,62.303L189.564,62.303z"/>
		<polygon style="fill:none;stroke:#0055BB;stroke-width:0.5;stroke-miterlimit:10;" points="253.707,254.728 93.354,134.46 
			189.564,62.303 349.92,182.567 		"/>
	</g>
	<line style="fill:none;stroke:#0055BB;stroke-width:0.5;stroke-miterlimit:10;" x1="350.08" y1="182.19" x2="350.08" y2="183.94"/>
	
		<line style="fill:none;stroke:#0055BB;stroke-width:0.5;stroke-miterlimit:10;" x1="93.258" y1="134.315" x2="93.258" y2="136.106"/>
</g>
<g id="SIDE">
	<g>
		<polygon style="fill:none;stroke:#FFFFFF;stroke-width:2;stroke-miterlimit:10;" points="213.006,292.364 192.824,277.302 
			192.853,282.785 173.074,268.027 173.044,262.542 91.509,201.698 91.538,207.18 71.76,192.422 71.729,186.937 51.548,171.876 
			51.489,160.909 152.399,236.216 152.339,225.249 172.925,240.612 172.895,235.128 192.673,249.888 192.704,255.371 
			212.887,270.433 		"/>
		<polygon style="fill:none;stroke:#727171;stroke-width:0.5;stroke-miterlimit:10;" points="213.006,292.364 192.824,277.302 
			192.853,282.785 173.074,268.027 173.044,262.542 91.509,201.698 91.538,207.18 71.76,192.422 71.729,186.937 51.548,171.876 
			51.489,160.909 152.399,236.216 152.339,225.249 172.925,240.612 172.895,235.128 192.673,249.888 192.704,255.371 
			212.887,270.433 		"/>
	</g>
	<g>
		<path style="fill:#FFFFFF;" d="M49.509,167.301l97.693,72.904l3.219,2.403l-0.022-4.016l-0.039-6.951l17.368,12.959l3.218,2.401
			l-0.022-4.015l-0.008-1.467l15.762,11.762l0.025,4.487l0.006,0.996l0.798,0.596l19.384,14.467l0.092,16.918l-16.964-12.661
			l-3.217-2.401l0.021,4.015l0.008,1.47l-15.763-11.763l-0.025-4.488l-0.005-0.996l-0.798-0.596l-81.536-60.842l-3.218-2.401
			l0.022,4.015l0.008,1.466l-15.762-11.76l-0.025-4.489l-0.005-0.996l-0.798-0.596l-19.382-14.463L49.509,167.301 M47.487,163.297
			l0.06,10.968l20.181,15.059l0.031,5.485l19.778,14.757l-0.03-5.48l81.536,60.842l0.03,5.484l19.778,14.761l-0.028-5.485
			l20.183,15.063l-0.12-21.93l-20.183-15.063l-0.031-5.483l-19.779-14.76l0.03,5.483l-20.586-15.362l0.061,10.967L47.487,163.297
			L47.487,163.297z"/>
		<polygon style="fill:none;stroke:#231815;stroke-width:0.5;stroke-miterlimit:10;" points="209.005,294.751 188.823,279.688 
			188.851,285.173 169.073,270.413 169.043,264.928 87.507,204.086 87.537,209.567 67.759,194.81 67.728,189.324 47.547,174.265 
			47.487,163.297 148.398,238.603 148.337,227.636 168.924,242.998 168.894,237.515 188.672,252.275 188.703,257.758 
			208.886,272.821 		"/>
	</g>
	
		<line style="fill:none;stroke:#231815;stroke-width:0.5;stroke-miterlimit:10;" x1="47.352" y1="163.074" x2="51.352" y2="161.074"/>
	
		<line style="fill:none;stroke:#231815;stroke-width:0.5;stroke-miterlimit:10;" x1="148.602" y1="227.327" x2="152.602" y2="225.327"/>
	
		<line style="fill:none;stroke:#231815;stroke-width:0.5;stroke-miterlimit:10;" x1="168.852" y1="237.078" x2="172.852" y2="235.078"/>
	
		<line style="fill:none;stroke:#231815;stroke-width:0.5;stroke-miterlimit:10;" x1="208.852" y1="294.33" x2="212.852" y2="292.33"/>
	
		<line style="fill:none;stroke:#231815;stroke-width:0.5;stroke-miterlimit:10;" x1="188.602" y1="284.83" x2="192.602" y2="282.829"/>
	
		<line style="fill:none;stroke:#231815;stroke-width:0.5;stroke-miterlimit:10;" x1="87.672" y1="209.524" x2="91.672" y2="207.524"/>
	<g>
		<polygon style="fill:none;stroke:#FFFFFF;stroke-width:2;stroke-miterlimit:10;" points="391.256,158.446 371.073,143.385 
			371.102,148.868 351.324,134.11 351.293,128.626 269.754,67.783 269.784,73.266 250.005,58.508 249.974,53.022 229.791,37.963 
			229.731,26.997 330.647,102.301 330.586,91.334 351.173,106.696 351.144,101.213 370.923,115.972 370.953,121.455 
			391.137,136.517 		"/>
		<polygon style="fill:none;stroke:#727171;stroke-width:0.5;stroke-miterlimit:10;" points="391.256,158.446 371.073,143.385 
			371.102,148.868 351.324,134.11 351.293,128.626 269.754,67.783 269.784,73.266 250.005,58.508 249.974,53.022 229.791,37.963 
			229.731,26.997 330.647,102.301 330.586,91.334 351.173,106.696 351.144,101.213 370.923,115.972 370.953,121.455 
			391.137,136.517 		"/>
	</g>
	<g>
		<path style="fill:#FFFFFF;" d="M227.752,33.389l97.699,72.901l3.219,2.402l-0.022-4.016l-0.039-6.951l17.369,12.96l3.219,2.402
			l-0.022-4.016l-0.009-1.466l15.763,11.762l0.025,4.486l0.006,0.996l0.798,0.596l19.384,14.466l0.092,16.918l-16.964-12.661
			l-3.217-2.4l0.021,4.014l0.008,1.471l-15.764-11.763l-0.023-4.488l-0.006-0.997l-0.798-0.596l-81.539-60.84l-3.219-2.401
			l0.022,4.016l0.008,1.466l-15.765-11.761l-0.025-4.489l-0.005-0.996l-0.798-0.596l-19.383-14.463L227.752,33.389 M225.73,29.385
			l0.06,10.967l20.181,15.059l0.03,5.485l19.782,14.757l-0.03-5.48l81.539,60.84l0.029,5.484l19.779,14.76l-0.028-5.484
			l20.183,15.062l-0.12-21.93l-20.182-15.062l-0.031-5.482l-19.78-14.76l0.031,5.482l-20.587-15.361l0.062,10.967L225.73,29.385
			L225.73,29.385z"/>
		<polygon style="fill:none;stroke:#231815;stroke-width:0.5;stroke-miterlimit:10;" points="387.255,160.834 367.072,145.771 
			367.101,151.256 347.321,136.496 347.292,131.012 265.753,70.172 265.783,75.652 246.001,60.896 245.971,55.41 225.79,40.352 
			225.73,29.385 326.647,104.688 326.585,93.721 347.173,109.082 347.142,103.6 366.922,118.359 366.953,123.842 387.135,138.904 		
			"/>
	</g>
	
		<line style="fill:none;stroke:#231815;stroke-width:0.5;stroke-miterlimit:10;" x1="225.594" y1="29.162" x2="229.594" y2="27.162"/>
	<line style="fill:none;stroke:#231815;stroke-width:0.5;stroke-miterlimit:10;" x1="326.85" y1="93.412" x2="330.85" y2="91.412"/>
	
		<line style="fill:none;stroke:#231815;stroke-width:0.5;stroke-miterlimit:10;" x1="347.101" y1="103.162" x2="351.101" y2="101.162"/>
	
		<line style="fill:none;stroke:#231815;stroke-width:0.5;stroke-miterlimit:10;" x1="387.102" y1="160.412" x2="391.102" y2="158.412"/>
	
		<line style="fill:none;stroke:#231815;stroke-width:0.5;stroke-miterlimit:10;" x1="366.852" y1="150.912" x2="370.852" y2="148.912"/>
	
		<line style="fill:none;stroke:#231815;stroke-width:0.5;stroke-miterlimit:10;" x1="265.918" y1="75.609" x2="269.918" y2="73.609"/>
</g>
<g id="ALLOW">
	<g>
		<path style="fill:none;stroke:#0055BB;stroke-width:0.5;stroke-miterlimit:10;" d="M101.094,136.153
			c-1.219-0.915-1.218-2.395,0-3.309c1.217-0.913,3.191-0.913,4.41,0.001"/>
		<path style="fill:none;stroke:#0055BB;stroke-width:0.5;stroke-miterlimit:10;" d="M105.503,132.845
			c1.217,0.913,1.217,2.393,0,3.306c-1.218,0.914-3.192,0.914-4.41,0.002"/>
	</g>
	<g>
		<path style="fill:none;stroke:#FFFFFF;stroke-width:2;stroke-miterlimit:10;" d="M101.094,134.735
			c-1.219-0.914-1.218-2.395,0-3.308c1.217-0.913,3.191-0.913,4.41,0.001"/>
		<path style="fill:none;stroke:#000000;stroke-width:0.5;stroke-miterlimit:10;" d="M101.094,134.735
			c-1.219-0.914-1.218-2.395,0-3.308c1.217-0.913,3.191-0.913,4.41,0.001"/>
	</g>
	<path style="fill:none;stroke:#000000;stroke-width:0.5;stroke-miterlimit:10;" d="M105.503,131.428
		c1.217,0.913,1.217,2.393,0,3.306c-1.218,0.914-3.192,0.914-4.41,0.001"/>
	<g>
		<path style="fill:none;stroke:#0055BB;stroke-width:0.5;stroke-miterlimit:10;" d="M338.602,185.899
			c-1.219-0.915-1.219-2.395,0-3.309c1.217-0.913,3.191-0.913,4.41,0.001"/>
		<path style="fill:none;stroke:#0055BB;stroke-width:0.5;stroke-miterlimit:10;" d="M343.012,182.591
			c1.217,0.913,1.217,2.394,0,3.306c-1.219,0.914-3.193,0.914-4.41,0.002"/>
	</g>
	<g>
		<path style="fill:none;stroke:#FFFFFF;stroke-width:2;stroke-miterlimit:10;" d="M338.602,184.481
			c-1.219-0.914-1.219-2.395,0-3.309c1.217-0.912,3.191-0.912,4.41,0.002"/>
		<path style="fill:none;stroke:#000000;stroke-width:0.5;stroke-miterlimit:10;" d="M338.602,184.481
			c-1.219-0.914-1.219-2.395,0-3.309c1.217-0.912,3.191-0.912,4.41,0.002"/>
	</g>
	<path style="fill:none;stroke:#000000;stroke-width:0.5;stroke-miterlimit:10;" d="M343.012,181.174
		c1.217,0.912,1.217,2.393,0,3.306c-1.219,0.913-3.193,0.914-4.41,0.001"/>
	<g>
		<g>
			<path style="fill:none;stroke:#000000;stroke-linecap:round;stroke-linejoin:round;stroke-miterlimit:10;" d="M204.294,211.108
				c0,0,0,3.375,0,4.5s-0.5,2-1.75,3s-22.292,17-22.292,17"/>
			<polyline style="fill:none;stroke:#000000;stroke-linecap:round;stroke-linejoin:round;stroke-miterlimit:10;" points="
				201.669,212.983 204.169,210.108 206.544,212.358 			"/>
		</g>
		<g>
			<path style="fill:none;stroke:#FFFFFF;stroke-width:4;" d="M204.294,211.108c0,0,0,3.375,0,4.5s-0.5,2-1.75,3
				s-22.292,17-22.292,17"/>
			<polyline style="fill:none;stroke:#FFFFFF;stroke-width:4;" points="201.669,212.983 204.169,210.108 206.544,212.358 			"/>
		</g>
		<g>
			<path style="fill:none;stroke:#231815;" d="M204.294,211.108c0,0,0,3.375,0,4.5s-0.5,2-1.75,3s-22.292,17-22.292,17"/>
			<polyline style="fill:none;stroke:#231815;" points="201.669,212.983 204.169,210.108 206.544,212.358 			"/>
		</g>
	</g>
	<g>
		<g>
			<path style="fill:none;stroke:#000000;stroke-linecap:round;stroke-linejoin:round;stroke-miterlimit:10;" d="M318.296,127.356
				c0,0,0,3.375,0,4.5s2.67,0.115,3.959-0.834c2.375-1.75,27.251-20.75,27.251-20.75"/>
			<polyline style="fill:none;stroke:#000000;stroke-linecap:round;stroke-linejoin:round;stroke-miterlimit:10;" points="
				315.671,129.231 318.171,126.356 320.546,128.606 			"/>
		</g>
		<g>
			<path style="fill:none;stroke:#FFFFFF;stroke-width:4;" d="M318.296,127.356c0,0,0,3.375,0,4.5s2.67,0.115,3.959-0.834
				c2.375-1.75,27.251-20.75,27.251-20.75"/>
			<polyline style="fill:none;stroke:#FFFFFF;stroke-width:4;" points="315.671,129.231 318.171,126.356 320.546,128.606 			"/>
		</g>
		<g>
			<path style="fill:none;stroke:#231815;" d="M318.296,127.356c0,0,0,3.375,0,4.5s2.67,0.115,3.959-0.834
				c2.375-1.75,27.251-20.75,27.251-20.75"/>
			<polyline style="fill:none;stroke:#231815;" points="315.671,129.231 318.171,126.356 320.546,128.606 			"/>
		</g>
	</g>
</g>
<g id="TOP">
	<g>
		<g>
			<polygon style="fill:none;stroke:#231815;stroke-width:0.5;stroke-miterlimit:10;" points="227.14,241.022 181.039,206.445 
				205.091,188.405 102.866,111.735 179.034,54.609 281.26,131.278 305.313,113.238 351.417,147.814 353.42,164.352 
				249.188,242.525 			"/>
			<polygon style="fill:none;stroke:#000000;stroke-width:0.5;stroke-miterlimit:10;" points="330.167,151.722 310.122,136.689 
				314.332,133.532 334.377,148.566 			"/>
			<polygon style="fill:none;stroke:#000000;stroke-width:0.5;stroke-miterlimit:10;" points="228.142,228.243 208.098,213.209 
				212.307,210.052 232.351,225.086 			"/>
			<path style="fill:none;stroke:#000000;stroke-width:0.5;stroke-linecap:round;stroke-miterlimit:10;" d="M174.917,112.112
				l2.083,3.015c-2.169,0.926-4.211,1.29-6.125,1.093c-1.914-0.196-3.708-0.922-5.38-2.177c-2.07-1.553-3.065-3.359-2.983-5.42
				c0.081-2.061,1.349-4.01,3.803-5.851c2.594-1.945,5.279-2.954,8.055-3.026c2.775-0.071,5.254,0.711,7.438,2.349
				c1.907,1.43,2.893,3.015,2.957,4.753c0.042,1.032-0.384,2.148-1.276,3.35l-3.86-1.778c0.623-0.745,0.877-1.511,0.76-2.301
				c-0.117-0.79-0.594-1.498-1.431-2.125c-1.156-0.867-2.508-1.259-4.057-1.176c-1.549,0.081-3.252,0.819-5.109,2.213
				c-1.971,1.478-3.021,2.797-3.147,3.956c-0.128,1.159,0.375,2.165,1.509,3.015c0.836,0.627,1.822,0.967,2.957,1.021
				C172.244,113.074,173.512,112.772,174.917,112.112z"/>
			<path style="fill:none;stroke:#000000;stroke-width:0.5;stroke-linecap:round;stroke-miterlimit:10;" d="M175.493,121.142
				l15.59-11.692l3.147,2.36l-6.136,4.602l6.168,4.626l6.136-4.602l3.148,2.361l-15.589,11.692l-3.148-2.361l6.815-5.112
				l-6.167-4.625l-6.816,5.112L175.493,121.142z"/>
			<path style="fill:none;stroke:#000000;stroke-width:0.5;stroke-linecap:round;stroke-miterlimit:10;" d="M191.66,133.266
				l15.589-11.692l3.147,2.361l-15.589,11.692L191.66,133.266z"/>
			<path style="fill:none;stroke:#000000;stroke-width:0.5;stroke-linecap:round;stroke-miterlimit:10;" d="M210.505,133.906
				l2.329,1.747c1.51,1.133,2.516,1.792,3.02,1.979c0.503,0.185,1.018,0.241,1.543,0.167c0.525-0.075,1.021-0.287,1.489-0.638
				c0.525-0.393,0.807-0.815,0.85-1.268c0.042-0.451-0.148-0.9-0.574-1.348c-0.22-0.217-0.968-0.805-2.244-1.762l-2.456-1.842
				l-3.148-2.361l2.638-1.978l6.625,4.969c1.666,1.25,2.736,2.263,3.211,3.039c0.475,0.776,0.581,1.604,0.319,2.48
				c-0.263,0.878-0.855,1.663-1.776,2.354c-1.169,0.877-2.481,1.344-3.929,1.399c-1.45,0.056-2.959-0.354-4.525-1.231
				c0.284,0.808,0.409,1.556,0.377,2.245c-0.032,0.688-0.277,1.768-0.738,3.242l-1.138,3.708l-3.764-2.822l1.116-4.251
				c0.405-1.515,0.615-2.503,0.633-2.962c0.017-0.459-0.083-0.859-0.298-1.197c-0.216-0.338-0.686-0.777-1.409-1.319l-0.638-0.479
				l-6.507,4.88l-3.148-2.361l8.996-6.747L210.505,133.906z"/>
			<path style="fill:none;stroke:#000000;stroke-width:0.5;stroke-linecap:round;stroke-miterlimit:10;" d="M214.527,150.417
				l15.59-11.692l3.147,2.361l-15.589,11.693L214.527,150.417z"/>
			<path style="fill:none;stroke:#000000;stroke-width:0.5;stroke-linecap:round;stroke-miterlimit:10;" d="M221.176,155.404
				l15.589-11.692l4.711,3.533l-7.806,10.098l13.431-5.879l4.722,3.542l-15.59,11.692l-2.923-2.192l12.271-9.204l-15.366,6.882
				l-3.031-2.273l9.187-11.517l-12.271,9.205L221.176,155.404z"/>
			<path style="fill:none;stroke:#000000;stroke-width:0.5;stroke-linecap:round;stroke-miterlimit:10;" d="M239.905,169.451
				l15.589-11.692l11.56,8.669l-2.638,1.979l-8.412-6.309l-3.455,2.592l7.828,5.871l-2.627,1.97l-7.828-5.871l-4.244,3.183
				l8.711,6.533l-2.626,1.969L239.905,169.451z"/>
			<path style="fill:none;stroke:#000000;stroke-width:0.5;stroke-linecap:round;stroke-miterlimit:10;" d="M255.009,180.779
				l15.589-11.693l3.062,2.297l-4.032,12.594l10.412-7.809l2.925,2.193l-15.589,11.693l-3.159-2.368l3.88-12.339l-10.167,7.625
				L255.009,180.779z"/>
			<g>
				<path style="fill:none;stroke:#000000;stroke-width:0.5;stroke-miterlimit:10;" d="M280.256,139.545
					c-1.107-0.831-1.106-2.176,0-3.006c1.108-0.831,2.902-0.832,4.01-0.001"/>
				<path style="fill:none;stroke:#000000;stroke-width:0.5;stroke-miterlimit:10;" d="M284.267,136.539
					c1.107,0.831,1.105,2.176-0.002,3.007c-1.106,0.83-2.9,0.831-4.008,0"/>
			</g>
			<g>
				<path style="fill:none;stroke:#000000;stroke-width:0.5;stroke-miterlimit:10;" d="M338.386,168.71
					c-1.219-0.913-1.217-2.394,0.001-3.308s3.19-0.914,4.408,0"/>
				<path style="fill:none;stroke:#000000;stroke-width:0.5;stroke-miterlimit:10;" d="M342.795,165.402
					c1.218,0.914,1.22,2.395,0.001,3.308c-1.218,0.914-3.192,0.914-4.41,0"/>
			</g>
			<g>
				<path style="fill:none;stroke:#000000;stroke-width:0.5;stroke-miterlimit:10;" d="M304.111,124.966
					c-1.218-0.914-1.218-2.395,0-3.309c1.219-0.914,3.192-0.913,4.41,0.001"/>
				<path style="fill:none;stroke:#000000;stroke-width:0.5;stroke-miterlimit:10;" d="M308.521,121.659
					c1.218,0.913,1.218,2.392,0,3.306c-1.218,0.914-3.191,0.915-4.41,0.001"/>
			</g>
			<g>
				<path style="fill:none;stroke:#000000;stroke-width:0.5;stroke-miterlimit:10;" d="M192.865,208.401
					c-1.218-0.913-1.218-2.395-0.001-3.308c1.218-0.914,3.192-0.913,4.411,0"/>
				<path style="fill:none;stroke:#000000;stroke-width:0.5;stroke-miterlimit:10;" d="M197.275,205.093
					c1.218,0.914,1.217,2.394,0,3.307c-1.218,0.914-3.191,0.914-4.409,0.001"/>
			</g>
		</g>
		<g>
			<polygon style="fill:none;stroke:#FFFFFF;stroke-width:2;" points="227.14,241.022 181.039,206.445 205.091,188.405 
				102.866,111.735 179.034,54.609 281.26,131.278 305.313,113.238 351.417,147.814 353.42,164.352 249.188,242.525 			"/>
			<polygon style="fill:none;stroke:#FFFFFF;stroke-width:2;" points="330.167,151.722 310.122,136.689 314.332,133.532 
				334.377,148.566 			"/>
			<polygon style="fill:none;stroke:#FFFFFF;stroke-width:2;" points="228.142,228.243 208.098,213.209 212.307,210.052 
				232.351,225.086 			"/>
			<path style="fill:none;stroke:#FFFFFF;stroke-width:2;" d="M174.917,112.112l2.083,3.015c-2.169,0.926-4.211,1.29-6.125,1.093
				c-1.914-0.196-3.708-0.922-5.38-2.177c-2.07-1.553-3.065-3.359-2.983-5.42c0.081-2.061,1.349-4.01,3.803-5.851
				c2.594-1.945,5.279-2.954,8.055-3.026c2.775-0.071,5.254,0.711,7.438,2.349c1.907,1.43,2.893,3.015,2.957,4.753
				c0.042,1.032-0.384,2.148-1.276,3.35l-3.86-1.778c0.623-0.745,0.877-1.511,0.76-2.301c-0.117-0.79-0.594-1.498-1.431-2.125
				c-1.156-0.867-2.508-1.259-4.057-1.176c-1.549,0.081-3.252,0.819-5.109,2.213c-1.971,1.478-3.021,2.797-3.147,3.956
				c-0.128,1.159,0.375,2.165,1.509,3.015c0.836,0.627,1.822,0.967,2.957,1.021C172.244,113.074,173.512,112.772,174.917,112.112z"
				/>
			<path style="fill:none;stroke:#FFFFFF;stroke-width:2;" d="M175.493,121.142l15.59-11.692l3.147,2.36l-6.136,4.602l6.168,4.626
				l6.136-4.602l3.148,2.361l-15.589,11.692l-3.148-2.361l6.815-5.112l-6.167-4.625l-6.816,5.112L175.493,121.142z"/>
			<path style="fill:none;stroke:#FFFFFF;stroke-width:2;" d="M191.66,133.266l15.589-11.692l3.147,2.361l-15.589,11.692
				L191.66,133.266z"/>
			<path style="fill:none;stroke:#FFFFFF;stroke-width:2;" d="M210.505,133.906l2.329,1.747c1.51,1.133,2.516,1.792,3.02,1.979
				c0.503,0.185,1.018,0.241,1.543,0.167c0.525-0.075,1.021-0.287,1.489-0.638c0.525-0.393,0.807-0.815,0.85-1.268
				c0.042-0.451-0.148-0.9-0.574-1.348c-0.22-0.217-0.968-0.805-2.244-1.762l-2.456-1.842l-3.148-2.361l2.638-1.978l6.625,4.969
				c1.666,1.25,2.736,2.263,3.211,3.039c0.475,0.776,0.581,1.604,0.319,2.48c-0.263,0.878-0.855,1.663-1.776,2.354
				c-1.169,0.877-2.481,1.344-3.929,1.399c-1.45,0.056-2.959-0.354-4.525-1.231c0.284,0.808,0.409,1.556,0.377,2.245
				c-0.032,0.688-0.277,1.768-0.738,3.242l-1.138,3.708l-3.764-2.822l1.116-4.251c0.405-1.515,0.615-2.503,0.633-2.962
				c0.017-0.459-0.083-0.859-0.298-1.197c-0.216-0.338-0.686-0.777-1.409-1.319l-0.638-0.479l-6.507,4.88l-3.148-2.361l8.996-6.747
				L210.505,133.906z"/>
			<path style="fill:none;stroke:#FFFFFF;stroke-width:2;" d="M214.527,150.417l15.59-11.692l3.147,2.361l-15.589,11.693
				L214.527,150.417z"/>
			<path style="fill:none;stroke:#FFFFFF;stroke-width:2;" d="M221.176,155.404l15.589-11.692l4.711,3.533l-7.806,10.098
				l13.431-5.879l4.722,3.542l-15.59,11.692l-2.923-2.192l12.271-9.204l-15.366,6.882l-3.031-2.273l9.187-11.517l-12.271,9.205
				L221.176,155.404z"/>
			<path style="fill:none;stroke:#FFFFFF;stroke-width:2;" d="M239.905,169.451l15.589-11.692l11.56,8.669l-2.638,1.979
				l-8.412-6.309l-3.455,2.592l7.828,5.871l-2.627,1.97l-7.828-5.871l-4.244,3.183l8.711,6.533l-2.626,1.969L239.905,169.451z"/>
			<path style="fill:none;stroke:#FFFFFF;stroke-width:2;" d="M255.009,180.779l15.589-11.693l3.062,2.297l-4.032,12.594
				l10.412-7.809l2.925,2.193l-15.589,11.693l-3.159-2.368l3.88-12.339l-10.167,7.625L255.009,180.779z"/>
			<g>
				<path style="fill:none;stroke:#FFFFFF;stroke-width:2;" d="M280.256,139.545c-1.107-0.831-1.106-2.176,0-3.006
					c1.108-0.831,2.902-0.832,4.01-0.001"/>
				<path style="fill:none;stroke:#FFFFFF;stroke-width:2;" d="M284.267,136.539c1.107,0.831,1.105,2.176-0.002,3.007
					c-1.106,0.83-2.9,0.831-4.008,0"/>
			</g>
			<g>
				<path style="fill:none;stroke:#FFFFFF;stroke-width:2;" d="M338.386,168.71c-1.219-0.913-1.217-2.394,0.001-3.308
					s3.19-0.914,4.408,0"/>
				<path style="fill:none;stroke:#FFFFFF;stroke-width:2;" d="M342.795,165.402c1.218,0.914,1.22,2.395,0.001,3.308
					c-1.218,0.914-3.192,0.914-4.41,0"/>
			</g>
			<g>
				<path style="fill:none;stroke:#FFFFFF;stroke-width:2;" d="M304.111,124.966c-1.218-0.914-1.218-2.395,0-3.309
					c1.219-0.914,3.192-0.913,4.41,0.001"/>
				<path style="fill:none;stroke:#FFFFFF;stroke-width:2;" d="M308.521,121.659c1.218,0.913,1.218,2.392,0,3.306
					c-1.218,0.914-3.191,0.915-4.41,0.001"/>
			</g>
			<g>
				<path style="fill:none;stroke:#FFFFFF;stroke-width:2;" d="M192.865,208.401c-1.218-0.913-1.218-2.395-0.001-3.308
					c1.218-0.914,3.192-0.913,4.411,0"/>
				<path style="fill:none;stroke:#FFFFFF;stroke-width:2;" d="M197.275,205.093c1.218,0.914,1.217,2.394,0,3.307
					c-1.218,0.914-3.191,0.914-4.409,0.001"/>
			</g>
		</g>
		<g>
			<polygon style="fill:none;stroke:#727171;stroke-width:0.5;" points="227.14,241.022 181.039,206.445 205.091,188.405 
				102.866,111.735 179.034,54.609 281.26,131.278 305.313,113.238 351.417,147.814 353.42,164.352 249.188,242.525 			"/>
			<polygon style="fill:none;stroke:#727171;stroke-width:0.5;" points="330.167,151.722 310.122,136.689 314.332,133.532 
				334.377,148.566 			"/>
			<polygon style="fill:none;stroke:#727171;stroke-width:0.5;" points="228.142,228.243 208.098,213.209 212.307,210.052 
				232.351,225.086 			"/>
			<path style="fill:none;stroke:#727171;stroke-width:0.5;" d="M174.917,112.112l2.083,3.015c-2.169,0.926-4.211,1.29-6.125,1.093
				c-1.914-0.196-3.708-0.922-5.38-2.177c-2.07-1.553-3.065-3.359-2.983-5.42c0.081-2.061,1.349-4.01,3.803-5.851
				c2.594-1.945,5.279-2.954,8.055-3.026c2.775-0.071,5.254,0.711,7.438,2.349c1.907,1.43,2.893,3.015,2.957,4.753
				c0.042,1.032-0.384,2.148-1.276,3.35l-3.86-1.778c0.623-0.745,0.877-1.511,0.76-2.301c-0.117-0.79-0.594-1.498-1.431-2.125
				c-1.156-0.867-2.508-1.259-4.057-1.176c-1.549,0.081-3.252,0.819-5.109,2.213c-1.971,1.478-3.021,2.797-3.147,3.956
				c-0.128,1.159,0.375,2.165,1.509,3.015c0.836,0.627,1.822,0.967,2.957,1.021C172.244,113.074,173.512,112.772,174.917,112.112z"
				/>
			<path style="fill:none;stroke:#727171;stroke-width:0.5;" d="M175.493,121.142l15.59-11.692l3.147,2.36l-6.136,4.602l6.168,4.626
				l6.136-4.602l3.148,2.361l-15.589,11.692l-3.148-2.361l6.815-5.112l-6.167-4.625l-6.816,5.112L175.493,121.142z"/>
			<path style="fill:none;stroke:#727171;stroke-width:0.5;" d="M191.66,133.266l15.589-11.692l3.147,2.361l-15.589,11.692
				L191.66,133.266z"/>
			<path style="fill:none;stroke:#727171;stroke-width:0.5;" d="M210.505,133.906l2.329,1.747c1.51,1.133,2.516,1.792,3.02,1.979
				c0.503,0.185,1.018,0.241,1.543,0.167c0.525-0.075,1.021-0.287,1.489-0.638c0.525-0.393,0.807-0.815,0.85-1.268
				c0.042-0.451-0.148-0.9-0.574-1.348c-0.22-0.217-0.968-0.805-2.244-1.762l-2.456-1.842l-3.148-2.361l2.638-1.978l6.625,4.969
				c1.666,1.25,2.736,2.263,3.211,3.039c0.475,0.776,0.581,1.604,0.319,2.48c-0.263,0.878-0.855,1.663-1.776,2.354
				c-1.169,0.877-2.481,1.344-3.929,1.399c-1.45,0.056-2.959-0.354-4.525-1.231c0.284,0.808,0.409,1.556,0.377,2.245
				c-0.032,0.688-0.277,1.768-0.738,3.242l-1.138,3.708l-3.764-2.822l1.116-4.251c0.405-1.515,0.615-2.503,0.633-2.962
				c0.017-0.459-0.083-0.859-0.298-1.197c-0.216-0.338-0.686-0.777-1.409-1.319l-0.638-0.479l-6.507,4.88l-3.148-2.361l8.996-6.747
				L210.505,133.906z"/>
			<path style="fill:none;stroke:#727171;stroke-width:0.5;" d="M214.527,150.417l15.59-11.692l3.147,2.361l-15.589,11.693
				L214.527,150.417z"/>
			<path style="fill:none;stroke:#727171;stroke-width:0.5;" d="M221.176,155.404l15.589-11.692l4.711,3.533l-7.806,10.098
				l13.431-5.879l4.722,3.542l-15.59,11.692l-2.923-2.192l12.271-9.204l-15.366,6.882l-3.031-2.273l9.187-11.517l-12.271,9.205
				L221.176,155.404z"/>
			<path style="fill:none;stroke:#727171;stroke-width:0.5;" d="M239.905,169.451l15.589-11.692l11.56,8.669l-2.638,1.979
				l-8.412-6.309l-3.455,2.592l7.828,5.871l-2.627,1.97l-7.828-5.871l-4.244,3.183l8.711,6.533l-2.626,1.969L239.905,169.451z"/>
			<path style="fill:none;stroke:#727171;stroke-width:0.5;" d="M255.009,180.779l15.589-11.693l3.062,2.297l-4.032,12.594
				l10.412-7.809l2.925,2.193l-15.589,11.693l-3.159-2.368l3.88-12.339l-10.167,7.625L255.009,180.779z"/>
			<g>
				<path style="fill:none;stroke:#727171;stroke-width:0.5;" d="M280.256,139.545c-1.107-0.831-1.106-2.176,0-3.006
					c1.108-0.831,2.902-0.832,4.01-0.001"/>
				<path style="fill:none;stroke:#727171;stroke-width:0.5;" d="M284.267,136.539c1.107,0.831,1.105,2.176-0.002,3.007
					c-1.106,0.83-2.9,0.831-4.008,0"/>
			</g>
			<g>
				<path style="fill:none;stroke:#727171;stroke-width:0.5;" d="M338.386,168.71c-1.219-0.913-1.217-2.394,0.001-3.308
					s3.19-0.914,4.408,0"/>
				<path style="fill:none;stroke:#727171;stroke-width:0.5;" d="M342.795,165.402c1.218,0.914,1.22,2.395,0.001,3.308
					c-1.218,0.914-3.192,0.914-4.41,0"/>
			</g>
			<g>
				<path style="fill:none;stroke:#727171;stroke-width:0.5;" d="M304.111,124.966c-1.218-0.914-1.218-2.395,0-3.309
					c1.219-0.914,3.192-0.913,4.41,0.001"/>
				<path style="fill:none;stroke:#727171;stroke-width:0.5;" d="M308.521,121.659c1.218,0.913,1.218,2.392,0,3.306
					c-1.218,0.914-3.191,0.915-4.41,0.001"/>
			</g>
			<g>
				<path style="fill:none;stroke:#727171;stroke-width:0.5;" d="M192.865,208.401c-1.218-0.913-1.218-2.395-0.001-3.308
					c1.218-0.914,3.192-0.913,4.411,0"/>
				<path style="fill:none;stroke:#727171;stroke-width:0.5;" d="M197.275,205.093c1.218,0.914,1.217,2.394,0,3.307
					c-1.218,0.914-3.191,0.914-4.409,0.001"/>
			</g>
		</g>
	</g>
	<g>
		<path style="fill:#FFFFFF;" d="M179.034,54.274l101.025,75.769l1.201,0.9l1.2-0.9l22.853-17.14l44.22,33.164l1.763,14.543
			l-102.713,77.035l-20.717-1.412l-43.494-32.622l21.919-16.44l2.133-1.6l-2.133-1.6L106.2,108.9L179.034,54.274 M179.034,51.774
			L102.866,108.9l102.225,76.671l-24.052,18.04l46.101,34.577l22.049,1.503l104.232-78.174l-2.004-16.538l-46.104-34.576
			l-24.053,18.04L179.034,51.774L179.034,51.774z"/>
		<polygon style="fill:none;stroke:#231815;stroke-width:0.5;" points="227.14,238.188 181.039,203.611 205.091,185.571 
			102.866,108.9 179.034,51.774 281.26,128.443 305.313,110.403 351.417,144.979 353.42,161.517 249.188,239.691 		"/>
	</g>
	<g>
		<polygon style="fill:none;stroke:#FFFFFF;stroke-width:2;" points="330.167,148.887 310.122,133.854 314.332,130.697 
			334.377,145.731 		"/>
		<polygon style="fill:none;stroke:#231815;stroke-width:0.5;" points="330.167,148.887 310.122,133.854 314.332,130.697 
			334.377,145.731 		"/>
	</g>
	<g>
		<polygon style="fill:none;stroke:#FFFFFF;stroke-width:2;" points="228.142,225.408 208.098,210.375 212.307,207.218 
			232.351,222.252 		"/>
		<polygon style="fill:none;stroke:#231815;stroke-width:0.5;" points="228.142,225.408 208.098,210.375 212.307,207.218 
			232.351,222.252 		"/>
	</g>
	<g>
		<path style="fill:none;stroke:#FFFFFF;stroke-width:2;" d="M174.917,109.277l2.083,3.015c-2.169,0.926-4.211,1.29-6.125,1.093
			c-1.914-0.196-3.708-0.922-5.38-2.177c-2.07-1.553-3.065-3.359-2.983-5.42c0.081-2.061,1.349-4.01,3.803-5.851
			c2.594-1.945,5.279-2.954,8.055-3.026c2.775-0.071,5.254,0.711,7.438,2.349c1.907,1.43,2.893,3.015,2.957,4.753
			c0.042,1.032-0.384,2.148-1.276,3.35l-3.86-1.778c0.623-0.745,0.877-1.511,0.76-2.301c-0.117-0.79-0.594-1.498-1.431-2.125
			c-1.156-0.867-2.508-1.259-4.057-1.176c-1.549,0.081-3.252,0.819-5.109,2.213c-1.971,1.478-3.021,2.797-3.147,3.956
			c-0.128,1.159,0.375,2.165,1.509,3.015c0.836,0.627,1.822,0.967,2.957,1.021C172.244,110.239,173.512,109.937,174.917,109.277z"/>
		<path style="fill:none;stroke:#231815;stroke-width:0.5;" d="M174.917,109.277l2.083,3.015c-2.169,0.926-4.211,1.29-6.125,1.093
			c-1.914-0.196-3.708-0.922-5.38-2.177c-2.07-1.553-3.065-3.359-2.983-5.42c0.081-2.061,1.349-4.01,3.803-5.851
			c2.594-1.945,5.279-2.954,8.055-3.026c2.775-0.071,5.254,0.711,7.438,2.349c1.907,1.43,2.893,3.015,2.957,4.753
			c0.042,1.032-0.384,2.148-1.276,3.35l-3.86-1.778c0.623-0.745,0.877-1.511,0.76-2.301c-0.117-0.79-0.594-1.498-1.431-2.125
			c-1.156-0.867-2.508-1.259-4.057-1.176c-1.549,0.081-3.252,0.819-5.109,2.213c-1.971,1.478-3.021,2.797-3.147,3.956
			c-0.128,1.159,0.375,2.165,1.509,3.015c0.836,0.627,1.822,0.967,2.957,1.021C172.244,110.239,173.512,109.937,174.917,109.277z"/>
	</g>
	<g>
		<path style="fill:none;stroke:#FFFFFF;stroke-width:2;" d="M175.493,118.307l15.59-11.692l3.147,2.36l-6.136,4.602l6.168,4.626
			l6.136-4.602l3.148,2.361l-15.589,11.692l-3.148-2.361l6.815-5.112l-6.167-4.625l-6.816,5.112L175.493,118.307z"/>
		<path style="fill:none;stroke:#231815;stroke-width:0.5;" d="M175.493,118.307l15.59-11.692l3.147,2.36l-6.136,4.602l6.168,4.626
			l6.136-4.602l3.148,2.361l-15.589,11.692l-3.148-2.361l6.815-5.112l-6.167-4.625l-6.816,5.112L175.493,118.307z"/>
	</g>
	<g>
		<path style="fill:none;stroke:#FFFFFF;stroke-width:2;" d="M191.66,130.431l15.589-11.692l3.147,2.361l-15.589,11.692
			L191.66,130.431z"/>
		<path style="fill:none;stroke:#231815;stroke-width:0.5;" d="M191.66,130.431l15.589-11.692l3.147,2.361l-15.589,11.692
			L191.66,130.431z"/>
	</g>
	<g>
		<path style="fill:none;stroke:#FFFFFF;stroke-width:2;" d="M210.505,131.071l2.329,1.747c1.51,1.133,2.516,1.792,3.02,1.979
			c0.503,0.185,1.018,0.241,1.543,0.167c0.525-0.075,1.021-0.287,1.489-0.638c0.525-0.393,0.807-0.815,0.85-1.268
			c0.042-0.451-0.148-0.9-0.574-1.348c-0.22-0.217-0.968-0.805-2.244-1.762l-2.456-1.842l-3.148-2.361l2.638-1.978l6.625,4.969
			c1.666,1.25,2.736,2.263,3.211,3.039c0.475,0.776,0.581,1.604,0.319,2.48c-0.263,0.878-0.855,1.663-1.776,2.354
			c-1.169,0.877-2.481,1.344-3.929,1.399c-1.45,0.056-2.959-0.354-4.525-1.231c0.284,0.808,0.409,1.556,0.377,2.245
			c-0.032,0.688-0.277,1.768-0.738,3.242l-1.138,3.708l-3.764-2.822l1.116-4.251c0.405-1.515,0.615-2.503,0.633-2.962
			c0.017-0.459-0.083-0.859-0.298-1.197c-0.216-0.338-0.686-0.777-1.409-1.319l-0.638-0.479l-6.507,4.88l-3.148-2.361l8.996-6.747
			L210.505,131.071z"/>
		<path style="fill:none;stroke:#231815;stroke-width:0.5;" d="M210.505,131.071l2.329,1.747c1.51,1.133,2.516,1.792,3.02,1.979
			c0.503,0.185,1.018,0.241,1.543,0.167c0.525-0.075,1.021-0.287,1.489-0.638c0.525-0.393,0.807-0.815,0.85-1.268
			c0.042-0.451-0.148-0.9-0.574-1.348c-0.22-0.217-0.968-0.805-2.244-1.762l-2.456-1.842l-3.148-2.361l2.638-1.978l6.625,4.969
			c1.666,1.25,2.736,2.263,3.211,3.039c0.475,0.776,0.581,1.604,0.319,2.48c-0.263,0.878-0.855,1.663-1.776,2.354
			c-1.169,0.877-2.481,1.344-3.929,1.399c-1.45,0.056-2.959-0.354-4.525-1.231c0.284,0.808,0.409,1.556,0.377,2.245
			c-0.032,0.688-0.277,1.768-0.738,3.242l-1.138,3.708l-3.764-2.822l1.116-4.251c0.405-1.515,0.615-2.503,0.633-2.962
			c0.017-0.459-0.083-0.859-0.298-1.197c-0.216-0.338-0.686-0.777-1.409-1.319l-0.638-0.479l-6.507,4.88l-3.148-2.361l8.996-6.747
			L210.505,131.071z"/>
	</g>
	<g>
		<path style="fill:none;stroke:#FFFFFF;stroke-width:2;" d="M214.527,147.583l15.59-11.692l3.147,2.361l-15.589,11.693
			L214.527,147.583z"/>
		<path style="fill:none;stroke:#231815;stroke-width:0.5;" d="M214.527,147.583l15.59-11.692l3.147,2.361l-15.589,11.693
			L214.527,147.583z"/>
	</g>
	<g>
		<path style="fill:none;stroke:#FFFFFF;stroke-width:2;" d="M221.176,152.569l15.589-11.692l4.711,3.533l-7.806,10.098
			l13.431-5.879l4.722,3.542l-15.59,11.692l-2.923-2.192l12.271-9.204l-15.366,6.882l-3.031-2.273l9.187-11.517l-12.271,9.205
			L221.176,152.569z"/>
		<path style="fill:none;stroke:#231815;stroke-width:0.5;" d="M221.176,152.569l15.589-11.692l4.711,3.533l-7.806,10.098
			l13.431-5.879l4.722,3.542l-15.59,11.692l-2.923-2.192l12.271-9.204l-15.366,6.882l-3.031-2.273l9.187-11.517l-12.271,9.205
			L221.176,152.569z"/>
	</g>
	<g>
		<path style="fill:none;stroke:#FFFFFF;stroke-width:2;" d="M239.905,166.616l15.589-11.692l11.56,8.669l-2.638,1.979l-8.412-6.309
			l-3.455,2.592l7.828,5.871l-2.627,1.97l-7.828-5.871l-4.244,3.183l8.711,6.534l-2.626,1.969L239.905,166.616z"/>
		<path style="fill:none;stroke:#231815;stroke-width:0.5;" d="M239.905,166.616l15.589-11.692l11.56,8.669l-2.638,1.979
			l-8.412-6.309l-3.455,2.592l7.828,5.871l-2.627,1.97l-7.828-5.871l-4.244,3.183l8.711,6.534l-2.626,1.969L239.905,166.616z"/>
	</g>
	<g>
		<path style="fill:none;stroke:#FFFFFF;stroke-width:2;" d="M255.009,177.945l15.589-11.694l3.062,2.297l-4.032,12.595
			l10.412-7.809l2.925,2.193l-15.589,11.693l-3.159-2.369l3.88-12.339l-10.167,7.625L255.009,177.945z"/>
		<path style="fill:none;stroke:#231815;stroke-width:0.5;" d="M255.009,177.945l15.589-11.694l3.062,2.297l-4.032,12.595
			l10.412-7.809l2.925,2.193l-15.589,11.693l-3.159-2.369l3.88-12.339l-10.167,7.625L255.009,177.945z"/>
	</g>
	<g>
		<g>
			<path style="fill:none;stroke:#000000;stroke-width:0.5;stroke-miterlimit:10;" d="M280.256,136.71
				c-1.107-0.831-1.106-2.176,0-3.006c1.108-0.831,2.902-0.832,4.01-0.001"/>
			<path style="fill:none;stroke:#000000;stroke-width:0.5;stroke-miterlimit:10;" d="M284.267,133.704
				c1.107,0.831,1.105,2.176-0.002,3.007c-1.106,0.83-2.9,0.831-4.008,0"/>
		</g>
		<g>
			<path style="fill:none;stroke:#FFFFFF;stroke-width:2;" d="M280.256,136.71c-1.107-0.831-1.106-2.176,0-3.006
				c1.108-0.831,2.902-0.832,4.01-0.001"/>
			<path style="fill:none;stroke:#FFFFFF;stroke-width:2;" d="M284.267,133.704c1.107,0.831,1.105,2.176-0.002,3.007
				c-1.106,0.83-2.9,0.831-4.008,0"/>
		</g>
		<g>
			<path style="fill:none;stroke:#231815;stroke-width:0.5;" d="M280.256,136.71c-1.107-0.831-1.106-2.176,0-3.006
				c1.108-0.831,2.902-0.832,4.01-0.001"/>
			<path style="fill:none;stroke:#231815;stroke-width:0.5;" d="M284.267,133.704c1.107,0.831,1.105,2.176-0.002,3.007
				c-1.106,0.83-2.9,0.831-4.008,0"/>
		</g>
	</g>
	<g>
		<g>
			<path style="fill:none;stroke:#000000;stroke-width:0.5;stroke-miterlimit:10;" d="M338.386,165.875
				c-1.219-0.913-1.217-2.394,0.001-3.308s3.19-0.914,4.408,0"/>
			<path style="fill:none;stroke:#000000;stroke-width:0.5;stroke-miterlimit:10;" d="M342.795,162.567
				c1.218,0.914,1.22,2.395,0.001,3.308c-1.218,0.914-3.192,0.914-4.41,0"/>
		</g>
		<g>
			<path style="fill:none;stroke:#FFFFFF;stroke-width:2;" d="M338.386,165.875c-1.219-0.913-1.217-2.394,0.001-3.308
				s3.19-0.914,4.408,0"/>
			<path style="fill:none;stroke:#FFFFFF;stroke-width:2;" d="M342.795,162.567c1.218,0.914,1.22,2.395,0.001,3.308
				c-1.218,0.914-3.192,0.914-4.41,0"/>
		</g>
		<g>
			<path style="fill:none;stroke:#231815;stroke-width:0.5;" d="M338.386,165.875c-1.219-0.913-1.217-2.394,0.001-3.308
				s3.19-0.914,4.408,0"/>
			<path style="fill:none;stroke:#231815;stroke-width:0.5;" d="M342.795,162.567c1.218,0.914,1.22,2.395,0.001,3.308
				c-1.218,0.914-3.192,0.914-4.41,0"/>
		</g>
	</g>
	<g>
		<g>
			<path style="fill:none;stroke:#000000;stroke-width:0.5;stroke-miterlimit:10;" d="M304.111,122.131
				c-1.218-0.914-1.218-2.395,0-3.309c1.219-0.914,3.192-0.913,4.41,0.001"/>
			<path style="fill:none;stroke:#000000;stroke-width:0.5;stroke-miterlimit:10;" d="M308.521,118.824
				c1.218,0.913,1.218,2.392,0,3.306c-1.218,0.914-3.191,0.915-4.41,0.001"/>
		</g>
		<g>
			<path style="fill:none;stroke:#FFFFFF;stroke-width:2;" d="M304.111,122.131c-1.218-0.914-1.218-2.395,0-3.309
				c1.219-0.914,3.192-0.913,4.41,0.001"/>
			<path style="fill:none;stroke:#FFFFFF;stroke-width:2;" d="M308.521,118.824c1.218,0.913,1.218,2.392,0,3.306
				c-1.218,0.914-3.191,0.915-4.41,0.001"/>
		</g>
		<g>
			<path style="fill:none;stroke:#231815;stroke-width:0.5;" d="M304.111,122.131c-1.218-0.914-1.218-2.395,0-3.309
				c1.219-0.914,3.192-0.913,4.41,0.001"/>
			<path style="fill:none;stroke:#231815;stroke-width:0.5;" d="M308.521,118.824c1.218,0.913,1.218,2.392,0,3.306
				c-1.218,0.914-3.191,0.915-4.41,0.001"/>
		</g>
	</g>
	<g>
		<g>
			<path style="fill:none;stroke:#000000;stroke-width:0.5;stroke-miterlimit:10;" d="M192.865,205.567
				c-1.218-0.913-1.218-2.395-0.001-3.308c1.218-0.914,3.192-0.913,4.411,0"/>
			<path style="fill:none;stroke:#000000;stroke-width:0.5;stroke-miterlimit:10;" d="M197.275,202.259
				c1.218,0.914,1.217,2.394,0,3.307c-1.218,0.914-3.191,0.914-4.409,0.001"/>
		</g>
		<g>
			<path style="fill:none;stroke:#FFFFFF;stroke-width:2;" d="M192.865,205.567c-1.218-0.913-1.218-2.395-0.001-3.308
				c1.218-0.914,3.192-0.913,4.411,0"/>
			<path style="fill:none;stroke:#FFFFFF;stroke-width:2;" d="M197.275,202.259c1.218,0.914,1.217,2.394,0,3.307
				c-1.218,0.914-3.191,0.914-4.409,0.001"/>
		</g>
		<g>
			<path style="fill:none;stroke:#231815;stroke-width:0.5;" d="M192.865,205.567c-1.218-0.913-1.218-2.395-0.001-3.308
				c1.218-0.914,3.192-0.913,4.411,0"/>
			<path style="fill:none;stroke:#231815;stroke-width:0.5;" d="M197.275,202.259c1.218,0.914,1.217,2.394,0,3.307
				c-1.218,0.914-3.191,0.914-4.409,0.001"/>
		</g>
	</g>
	<line style="fill:none;stroke:#000000;stroke-width:0.5;" x1="102.613" y1="108.607" x2="102.613" y2="111.94"/>
	<line style="fill:none;stroke:#000000;stroke-width:0.5;" x1="181.087" y1="203.441" x2="181.087" y2="206.441"/>
</g>
<g id="レイヤー_8">
	<g>
		<g>
			
				<line style="fill:none;stroke:#000000;stroke-width:0.5;stroke-miterlimit:10;" x1="340.423" y1="153.19" x2="340.423" y2="154.19"/>
			
				<line style="fill:none;stroke:#000000;stroke-width:0.5;stroke-miterlimit:10;stroke-dasharray:1.9569,1.9569;" x1="340.423" y1="156.147" x2="340.423" y2="209.962"/>
			
				<line style="fill:none;stroke:#000000;stroke-width:0.5;stroke-miterlimit:10;" x1="340.423" y1="210.941" x2="340.423" y2="211.941"/>
		</g>
	</g>
	<g>
		<g>
			
				<line style="fill:none;stroke:#000000;stroke-width:0.5;stroke-miterlimit:10;" x1="306.171" y1="104.94" x2="306.171" y2="105.94"/>
			
				<line style="fill:none;stroke:#000000;stroke-width:0.5;stroke-miterlimit:10;stroke-dasharray:1.9569,1.9569;" x1="306.171" y1="107.897" x2="306.171" y2="161.711"/>
			
				<line style="fill:none;stroke:#000000;stroke-width:0.5;stroke-miterlimit:10;" x1="306.171" y1="162.69" x2="306.171" y2="163.69"/>
		</g>
	</g>
	<g>
		<g>
			
				<line style="fill:none;stroke:#000000;stroke-width:0.5;stroke-miterlimit:10;" x1="195.17" y1="190.69" x2="195.17" y2="191.69"/>
			
				<line style="fill:none;stroke:#000000;stroke-width:0.5;stroke-miterlimit:10;stroke-dasharray:1.9569,1.9569;" x1="195.17" y1="193.647" x2="195.17" y2="247.464"/>
			
				<line style="fill:none;stroke:#000000;stroke-width:0.5;stroke-miterlimit:10;" x1="195.17" y1="248.442" x2="195.17" y2="249.442"/>
		</g>
	</g>
	<g>
		<g>
			
				<line style="fill:none;stroke:#000000;stroke-width:0.5;stroke-miterlimit:10;" x1="102.92" y1="122.69" x2="102.92" y2="123.69"/>
			
				<line style="fill:none;stroke:#000000;stroke-width:0.5;stroke-miterlimit:10;stroke-dasharray:2.1,2.1;" x1="102.92" y1="125.79" x2="102.92" y2="154.14"/>
			
				<line style="fill:none;stroke:#000000;stroke-width:0.5;stroke-miterlimit:10;" x1="102.92" y1="155.19" x2="102.92" y2="156.19"/>
		</g>
	</g>
	<g>
		<g>
			<line style="fill:none;stroke:#000000;stroke-width:0.5;stroke-miterlimit:10;" x1="189.17" y1="71.44" x2="189.17" y2="72.44"/>
			
				<line style="fill:none;stroke:#000000;stroke-width:0.5;stroke-miterlimit:10;stroke-dasharray:1.8182,1.8182;" x1="189.17" y1="74.258" x2="189.17" y2="91.531"/>
			<line style="fill:none;stroke:#000000;stroke-width:0.5;stroke-miterlimit:10;" x1="189.17" y1="92.44" x2="189.17" y2="93.44"/>
		</g>
	</g>
	<g>
		<g>
			
				<line style="fill:none;stroke:#000000;stroke-width:0.5;stroke-miterlimit:10;" x1="253.17" y1="247.942" x2="253.17" y2="248.942"/>
			
				<line style="fill:none;stroke:#000000;stroke-width:0.5;stroke-miterlimit:10;stroke-dasharray:1.8182,1.8182;" x1="253.17" y1="250.761" x2="253.17" y2="268.034"/>
			
				<line style="fill:none;stroke:#000000;stroke-width:0.5;stroke-miterlimit:10;" x1="253.17" y1="268.943" x2="253.17" y2="269.943"/>
		</g>
	</g>
</g>
<g id="レイヤー_9">
	<line style="fill:none;stroke:#000000;stroke-miterlimit:10;" x1="93.333" y1="129.833" x2="77" y2="113.5"/>
	<line style="fill:none;stroke:#000000;stroke-miterlimit:10;" x1="321.676" y1="90.773" x2="338.01" y2="74.44"/>
	<line style="fill:none;stroke:#000000;stroke-miterlimit:10;" x1="172.659" y1="52.493" x2="155.486" y2="37.046"/>
	<line style="fill:none;stroke:#000000;stroke-miterlimit:10;" x1="354.011" y1="198.441" x2="370.344" y2="214.774"/>
	<line style="fill:none;stroke:#000000;stroke-miterlimit:10;" x1="148.757" y1="253.526" x2="132.424" y2="269.859"/>
	<line style="fill:none;stroke:#000000;stroke-miterlimit:10;" x1="274.594" y1="255.94" x2="290.927" y2="272.273"/>
	<polygon points="172.685,53.271 173.156,46.082 166.262,52.976 	"/>
	<polygon points="321.576,91.005 328.765,91.476 321.871,84.582 	"/>
	<polygon points="94.366,130.525 94.837,123.336 87.943,130.23 	"/>
	<polygon points="353.84,198.146 353.369,205.335 360.263,198.441 	"/>
	<polygon points="274.26,255.643 273.789,262.832 280.683,255.938 	"/>
	<polygon points="149.447,253.662 142.259,253.191 149.153,260.085 	"/>
</g>
<g id="レイヤー_10">
</g>
<g id="レイヤー_12">
	<g>
		<g>
			
				<rect x="54.349" y="227.242" style="fill:none;stroke:#000000;stroke-width:0.5;stroke-miterlimit:10;" width="4.252" height="63.782"/>
			<path style="fill:none;stroke:#000000;stroke-width:0.5;stroke-miterlimit:10;" d="M61.474,227.224H51.411v-1.448
				c0,0,1.66-1.69,5.232-1.69c3.57,0,4.83,1.69,4.83,1.69V227.224z"/>
			<g>
				<path style="fill:#FFFFFF;" d="M59.603,279.455v10.756h-6.504v-10.756H59.603 M60.603,278.455h-8.504v12.756h8.504V278.455
					L60.603,278.455z"/>
				
					<rect x="52.099" y="278.455" style="fill:none;stroke:#000000;stroke-width:0.5;stroke-miterlimit:10;" width="8.504" height="12.756"/>
			</g>
		</g>
		
			<line style="fill:none;stroke:#717071;stroke-width:0.5;stroke-miterlimit:10;" x1="55.091" y1="231.353" x2="58.341" y2="233.103"/>
		
			<line style="fill:none;stroke:#717071;stroke-width:0.5;stroke-miterlimit:10;" x1="55.091" y1="227.875" x2="58.341" y2="229.625"/>
		
			<line style="fill:none;stroke:#717071;stroke-width:0.5;stroke-miterlimit:10;" x1="55.091" y1="229.614" x2="58.341" y2="231.364"/>
		
			<line style="fill:none;stroke:#717071;stroke-width:0.5;stroke-miterlimit:10;" x1="55.091" y1="233.092" x2="58.341" y2="234.842"/>
		
			<line style="fill:none;stroke:#717071;stroke-width:0.5;stroke-miterlimit:10;" x1="55.091" y1="247.005" x2="58.341" y2="248.755"/>
		
			<line style="fill:none;stroke:#717071;stroke-width:0.5;stroke-miterlimit:10;" x1="55.091" y1="238.31" x2="58.341" y2="240.06"/>
		
			<line style="fill:none;stroke:#717071;stroke-width:0.5;stroke-miterlimit:10;" x1="55.091" y1="245.266" x2="58.341" y2="247.016"/>
		
			<line style="fill:none;stroke:#717071;stroke-width:0.5;stroke-miterlimit:10;" x1="55.091" y1="243.527" x2="58.341" y2="245.277"/>
		
			<line style="fill:none;stroke:#717071;stroke-width:0.5;stroke-miterlimit:10;" x1="55.091" y1="241.788" x2="58.341" y2="243.538"/>
		
			<line style="fill:none;stroke:#717071;stroke-width:0.5;stroke-miterlimit:10;" x1="55.091" y1="240.048" x2="58.341" y2="241.798"/>
		
			<line style="fill:none;stroke:#717071;stroke-width:0.5;stroke-miterlimit:10;" x1="55.091" y1="236.57" x2="58.341" y2="238.32"/>
		
			<line style="fill:none;stroke:#717071;stroke-width:0.5;stroke-miterlimit:10;" x1="55.091" y1="234.831" x2="58.341" y2="236.581"/>
		
			<line style="fill:none;stroke:#717071;stroke-width:0.5;stroke-miterlimit:10;" x1="55.091" y1="252.222" x2="58.341" y2="253.972"/>
		
			<line style="fill:none;stroke:#717071;stroke-width:0.5;stroke-miterlimit:10;" x1="55.091" y1="248.744" x2="58.341" y2="250.494"/>
		
			<line style="fill:none;stroke:#717071;stroke-width:0.5;stroke-miterlimit:10;" x1="55.091" y1="250.483" x2="58.341" y2="252.233"/>
		
			<line style="fill:none;stroke:#717071;stroke-width:0.5;stroke-miterlimit:10;" x1="55.091" y1="253.961" x2="58.341" y2="255.711"/>
		
			<line style="fill:none;stroke:#717071;stroke-width:0.5;stroke-miterlimit:10;" x1="55.091" y1="267.875" x2="58.341" y2="269.625"/>
		
			<line style="fill:none;stroke:#717071;stroke-width:0.5;stroke-miterlimit:10;" x1="55.091" y1="259.179" x2="58.341" y2="260.929"/>
		
			<line style="fill:none;stroke:#717071;stroke-width:0.5;stroke-miterlimit:10;" x1="55.091" y1="266.135" x2="58.341" y2="267.885"/>
		
			<line style="fill:none;stroke:#717071;stroke-width:0.5;stroke-miterlimit:10;" x1="55.091" y1="264.396" x2="58.341" y2="266.146"/>
		
			<line style="fill:none;stroke:#717071;stroke-width:0.5;stroke-miterlimit:10;" x1="55.091" y1="262.657" x2="58.341" y2="264.407"/>
		
			<line style="fill:none;stroke:#717071;stroke-width:0.5;stroke-miterlimit:10;" x1="55.091" y1="260.918" x2="58.341" y2="262.668"/>
		
			<line style="fill:none;stroke:#717071;stroke-width:0.5;stroke-miterlimit:10;" x1="55.091" y1="257.439" x2="58.341" y2="259.189"/>
		
			<line style="fill:none;stroke:#717071;stroke-width:0.5;stroke-miterlimit:10;" x1="55.091" y1="255.701" x2="58.341" y2="257.451"/>
		
			<line style="fill:none;stroke:#717071;stroke-width:0.5;stroke-miterlimit:10;" x1="55.091" y1="273.092" x2="58.341" y2="274.842"/>
		
			<line style="fill:none;stroke:#717071;stroke-width:0.5;stroke-miterlimit:10;" x1="55.091" y1="269.613" x2="58.341" y2="271.363"/>
		
			<line style="fill:none;stroke:#717071;stroke-width:0.5;stroke-miterlimit:10;" x1="55.091" y1="271.353" x2="58.341" y2="273.103"/>
		
			<line style="fill:none;stroke:#000000;stroke-width:0.25;stroke-miterlimit:10;" x1="55.091" y1="274.831" x2="58.341" y2="276.581"/>
		
			<line style="fill:none;stroke:#000000;stroke-width:0.25;stroke-miterlimit:10;" x1="55.091" y1="276.57" x2="58.341" y2="278.32"/>
	</g>
	<g>
		<g>
			
				<rect x="390.342" y="36.217" style="fill:none;stroke:#000000;stroke-width:0.5;stroke-miterlimit:10;" width="4.252" height="63.779"/>
			<path style="fill:none;stroke:#000000;stroke-width:0.5;stroke-miterlimit:10;" d="M397.467,36.199h-10.062V34.75
				c0,0,1.66-1.69,5.232-1.69c3.57,0,4.83,1.69,4.83,1.69V36.199z"/>
			<g>
				<path style="fill:#FFFFFF;" d="M395.595,88.428v10.756h-6.503V88.428H395.595 M396.595,87.428h-8.503v12.756h8.503V87.428
					L396.595,87.428z"/>
				
					<rect x="388.092" y="87.428" style="fill:none;stroke:#000000;stroke-width:0.5;stroke-miterlimit:10;" width="8.503" height="12.756"/>
			</g>
		</g>
		
			<line style="fill:none;stroke:#717071;stroke-width:0.5;stroke-miterlimit:10;" x1="391.101" y1="40.187" x2="394.351" y2="41.937"/>
		
			<line style="fill:none;stroke:#717071;stroke-width:0.5;stroke-miterlimit:10;" x1="391.101" y1="36.709" x2="394.351" y2="38.459"/>
		
			<line style="fill:none;stroke:#717071;stroke-width:0.5;stroke-miterlimit:10;" x1="391.101" y1="38.448" x2="394.351" y2="40.198"/>
		
			<line style="fill:none;stroke:#717071;stroke-width:0.5;stroke-miterlimit:10;" x1="391.101" y1="41.926" x2="394.351" y2="43.676"/>
		
			<line style="fill:none;stroke:#717071;stroke-width:0.5;stroke-miterlimit:10;" x1="391.101" y1="55.839" x2="394.351" y2="57.589"/>
		
			<line style="fill:none;stroke:#717071;stroke-width:0.5;stroke-miterlimit:10;" x1="391.101" y1="47.144" x2="394.351" y2="48.894"/>
		<line style="fill:none;stroke:#717071;stroke-width:0.5;stroke-miterlimit:10;" x1="391.101" y1="54.1" x2="394.351" y2="55.85"/>
		
			<line style="fill:none;stroke:#717071;stroke-width:0.5;stroke-miterlimit:10;" x1="391.101" y1="52.361" x2="394.351" y2="54.111"/>
		
			<line style="fill:none;stroke:#717071;stroke-width:0.5;stroke-miterlimit:10;" x1="391.101" y1="50.622" x2="394.351" y2="52.372"/>
		
			<line style="fill:none;stroke:#717071;stroke-width:0.5;stroke-miterlimit:10;" x1="391.101" y1="48.882" x2="394.351" y2="50.632"/>
		
			<line style="fill:none;stroke:#717071;stroke-width:0.5;stroke-miterlimit:10;" x1="391.101" y1="45.404" x2="394.351" y2="47.154"/>
		
			<line style="fill:none;stroke:#717071;stroke-width:0.5;stroke-miterlimit:10;" x1="391.101" y1="43.665" x2="394.351" y2="45.415"/>
		
			<line style="fill:none;stroke:#717071;stroke-width:0.5;stroke-miterlimit:10;" x1="391.101" y1="61.056" x2="394.351" y2="62.806"/>
		
			<line style="fill:none;stroke:#717071;stroke-width:0.5;stroke-miterlimit:10;" x1="391.101" y1="57.578" x2="394.351" y2="59.328"/>
		
			<line style="fill:none;stroke:#717071;stroke-width:0.5;stroke-miterlimit:10;" x1="391.101" y1="59.317" x2="394.351" y2="61.067"/>
		
			<line style="fill:none;stroke:#717071;stroke-width:0.5;stroke-miterlimit:10;" x1="391.101" y1="62.795" x2="394.351" y2="64.545"/>
		
			<line style="fill:none;stroke:#717071;stroke-width:0.5;stroke-miterlimit:10;" x1="391.101" y1="76.708" x2="394.351" y2="78.458"/>
		
			<line style="fill:none;stroke:#717071;stroke-width:0.5;stroke-miterlimit:10;" x1="391.101" y1="68.013" x2="394.351" y2="69.763"/>
		
			<line style="fill:none;stroke:#717071;stroke-width:0.5;stroke-miterlimit:10;" x1="391.101" y1="74.969" x2="394.351" y2="76.719"/>
		
			<line style="fill:none;stroke:#717071;stroke-width:0.5;stroke-miterlimit:10;" x1="391.101" y1="73.23" x2="394.351" y2="74.98"/>
		
			<line style="fill:none;stroke:#717071;stroke-width:0.5;stroke-miterlimit:10;" x1="391.101" y1="71.491" x2="394.351" y2="73.241"/>
		
			<line style="fill:none;stroke:#717071;stroke-width:0.5;stroke-miterlimit:10;" x1="391.101" y1="69.752" x2="394.351" y2="71.502"/>
		
			<line style="fill:none;stroke:#717071;stroke-width:0.5;stroke-miterlimit:10;" x1="391.101" y1="66.273" x2="394.351" y2="68.023"/>
		
			<line style="fill:none;stroke:#717071;stroke-width:0.5;stroke-miterlimit:10;" x1="391.101" y1="64.535" x2="394.351" y2="66.285"/>
		
			<line style="fill:none;stroke:#717071;stroke-width:0.5;stroke-miterlimit:10;" x1="391.101" y1="81.926" x2="394.351" y2="83.676"/>
		
			<line style="fill:none;stroke:#717071;stroke-width:0.5;stroke-miterlimit:10;" x1="391.101" y1="78.447" x2="394.351" y2="80.197"/>
		
			<line style="fill:none;stroke:#717071;stroke-width:0.5;stroke-miterlimit:10;" x1="391.101" y1="80.187" x2="394.351" y2="81.937"/>
		
			<line style="fill:none;stroke:#717071;stroke-width:0.5;stroke-miterlimit:10;" x1="391.101" y1="83.665" x2="394.351" y2="85.415"/>
		
			<line style="fill:none;stroke:#717071;stroke-width:0.5;stroke-miterlimit:10;" x1="391.101" y1="85.404" x2="394.351" y2="87.154"/>
	</g>
	<g>
		<g>
			
				<rect x="144.894" y="29.939" style="fill:none;stroke:#000000;stroke-width:0.5;stroke-miterlimit:10;" width="4.252" height="25.512"/>
			<path style="fill:none;stroke:#000000;stroke-width:0.5;stroke-miterlimit:10;" d="M152.019,29.921h-10.062v-1.449
				c0,0,1.66-1.689,5.232-1.689c3.57,0,4.83,1.689,4.83,1.689V29.921z"/>
			<g>
				<path style="fill:#FFFFFF;" d="M150.148,43.88v10.756h-6.504V43.88H150.148 M151.148,42.88h-8.504v12.756h8.504V42.88
					L151.148,42.88z"/>
				
					<rect x="142.644" y="42.88" style="fill:none;stroke:#000000;stroke-width:0.5;stroke-miterlimit:10;" width="8.504" height="12.756"/>
			</g>
			<g>
				<path style="fill:#FFFFFF;" d="M150.148,31.551v3.669h-6.504v-3.669H150.148 M151.148,30.551h-8.504v5.669h8.504V30.551
					L151.148,30.551z"/>
				
					<rect x="142.644" y="30.551" style="fill:none;stroke:#000000;stroke-width:0.5;stroke-miterlimit:10;" width="8.504" height="5.669"/>
			</g>
		</g>
		
			<line style="fill:none;stroke:#717071;stroke-width:0.5;stroke-miterlimit:10;" x1="146.014" y1="39.896" x2="149.264" y2="41.646"/>
		
			<line style="fill:none;stroke:#717071;stroke-width:0.5;stroke-miterlimit:10;" x1="146.014" y1="36.417" x2="149.264" y2="38.167"/>
		
			<line style="fill:none;stroke:#717071;stroke-width:0.5;stroke-miterlimit:10;" x1="146.014" y1="38.156" x2="149.264" y2="39.906"/>
		
			<line style="fill:none;stroke:#717071;stroke-width:0.5;stroke-miterlimit:10;" x1="146.014" y1="41.635" x2="149.264" y2="43.385"/>
	</g>
	<g>
		<g>
			
				<rect x="396.188" y="167.487" style="fill:none;stroke:#000000;stroke-width:0.5;stroke-miterlimit:10;" width="4.253" height="63.781"/>
			<path style="fill:none;stroke:#000000;stroke-width:0.5;stroke-miterlimit:10;" d="M403.312,167.469h-10.062v-1.45
				c0,0,1.659-1.69,5.232-1.69c3.569,0,4.829,1.69,4.829,1.69V167.469z"/>
			<g>
				<path style="fill:#FFFFFF;" d="M401.44,219.699v10.756h-6.503v-10.756H401.44 M402.44,218.699h-8.503v12.756h8.503V218.699
					L402.44,218.699z"/>
				
					<rect x="393.938" y="218.699" style="fill:none;stroke:#000000;stroke-width:0.5;stroke-miterlimit:10;" width="8.503" height="12.756"/>
			</g>
			<g>
				<path style="fill:#FFFFFF;" d="M401.44,198.438v10.756h-6.503v-10.756H401.44 M402.44,197.438h-8.503v12.756h8.503V197.438
					L402.44,197.438z"/>
				
					<rect x="393.938" y="197.438" style="fill:none;stroke:#000000;stroke-width:0.5;stroke-miterlimit:10;" width="8.503" height="12.756"/>
			</g>
			<g>
				<path style="fill:#FFFFFF;" d="M401.44,177.176v10.756h-6.503v-10.756H401.44 M402.44,176.176h-8.503v12.756h8.503V176.176
					L402.44,176.176z"/>
				
					<rect x="393.938" y="176.176" style="fill:none;stroke:#000000;stroke-width:0.5;stroke-miterlimit:10;" width="8.503" height="12.756"/>
			</g>
		</g>
		<line style="fill:none;stroke:#717071;stroke-width:0.5;stroke-miterlimit:10;" x1="397.02" y1="189.25" x2="400.27" y2="191"/>
		
			<line style="fill:none;stroke:#717071;stroke-width:0.5;stroke-miterlimit:10;" x1="397.438" y1="167.602" x2="400.688" y2="169.352"/>
		
			<line style="fill:none;stroke:#717071;stroke-width:0.5;stroke-miterlimit:10;" x1="397.438" y1="174.559" x2="400.688" y2="176.309"/>
		
			<line style="fill:none;stroke:#717071;stroke-width:0.5;stroke-miterlimit:10;" x1="397.438" y1="172.819" x2="400.688" y2="174.569"/>
		
			<line style="fill:none;stroke:#717071;stroke-width:0.5;stroke-miterlimit:10;" x1="397.438" y1="171.08" x2="400.688" y2="172.83"/>
		
			<line style="fill:none;stroke:#717071;stroke-width:0.5;stroke-miterlimit:10;" x1="397.438" y1="169.341" x2="400.688" y2="171.091"/>
		
			<line style="fill:none;stroke:#717071;stroke-width:0.5;stroke-miterlimit:10;" x1="397.02" y1="194.467" x2="400.27" y2="196.217"/>
		
			<line style="fill:none;stroke:#717071;stroke-width:0.5;stroke-miterlimit:10;" x1="397.02" y1="190.989" x2="400.27" y2="192.739"/>
		
			<line style="fill:none;stroke:#717071;stroke-width:0.5;stroke-miterlimit:10;" x1="397.02" y1="192.729" x2="400.27" y2="194.479"/>
		
			<line style="fill:none;stroke:#717071;stroke-width:0.5;stroke-miterlimit:10;" x1="397.02" y1="196.207" x2="400.27" y2="197.957"/>
		
			<line style="fill:none;stroke:#717071;stroke-width:0.5;stroke-miterlimit:10;" x1="397.438" y1="213.721" x2="400.688" y2="215.471"/>
		
			<line style="fill:none;stroke:#717071;stroke-width:0.5;stroke-miterlimit:10;" x1="397.438" y1="217.199" x2="400.688" y2="218.949"/>
		
			<line style="fill:none;stroke:#717071;stroke-width:0.5;stroke-miterlimit:10;" x1="397.438" y1="215.46" x2="400.688" y2="217.21"/>
		
			<line style="fill:none;stroke:#717071;stroke-width:0.5;stroke-miterlimit:10;" x1="397.438" y1="211.982" x2="400.688" y2="213.732"/>
		
			<line style="fill:none;stroke:#717071;stroke-width:0.5;stroke-miterlimit:10;" x1="397.438" y1="210.243" x2="400.688" y2="211.993"/>
	</g>
	<g>
		<g>
			
				<rect x="302.854" y="266.708" style="fill:none;stroke:#000000;stroke-width:0.5;stroke-miterlimit:10;" width="4.253" height="25.513"/>
			<path style="fill:none;stroke:#000000;stroke-width:0.5;stroke-miterlimit:10;" d="M309.98,266.69h-10.062v-1.448
				c0,0,1.659-1.69,5.232-1.69c3.57,0,4.83,1.69,4.83,1.69V266.69z"/>
			<g>
				<path style="fill:#FFFFFF;" d="M308.108,280.651v10.756h-6.503v-10.756H308.108 M309.108,279.651h-8.503v12.756h8.503V279.651
					L309.108,279.651z"/>
				
					<rect x="300.604" y="279.651" style="fill:none;stroke:#000000;stroke-width:0.5;stroke-miterlimit:10;" width="8.503" height="12.756"/>
			</g>
			<g>
				<path style="fill:#FFFFFF;" d="M308.108,268.321v3.669h-6.503v-3.669H308.108 M309.108,267.321h-8.503v5.669h8.503V267.321
					L309.108,267.321z"/>
				
					<rect x="300.604" y="267.321" style="fill:none;stroke:#000000;stroke-width:0.5;stroke-miterlimit:10;" width="8.503" height="5.669"/>
			</g>
		</g>
		
			<line style="fill:none;stroke:#000000;stroke-width:0.25;stroke-miterlimit:10;" x1="303.769" y1="276.417" x2="307.019" y2="278.167"/>
		
			<line style="fill:none;stroke:#717071;stroke-width:0.5;stroke-miterlimit:10;" x1="303.769" y1="274.678" x2="307.019" y2="276.428"/>
		
			<line style="fill:none;stroke:#717071;stroke-width:0.5;stroke-miterlimit:10;" x1="303.769" y1="272.938" x2="307.019" y2="274.688"/>
		
			<line style="fill:none;stroke:#000000;stroke-width:0.25;stroke-miterlimit:10;" x1="303.769" y1="278.156" x2="307.019" y2="279.906"/>
	</g>
	<g>
		<path style="fill:none;stroke:#000000;stroke-width:0.5;stroke-miterlimit:10;" d="M25.062,97.694H15v-1.449
			c0,0,1.659-1.69,5.232-1.69c3.569,0,4.829,1.69,4.829,1.69V97.694z"/>
		<g>
			<path style="fill:#FFFFFF;" d="M23.19,101.876v10.756h-6.504v-10.756H23.19 M24.19,100.876h-8.504v12.756h8.504V100.876
				L24.19,100.876z"/>
			
				<rect x="15.687" y="100.876" style="fill:none;stroke:#000000;stroke-width:0.5;stroke-miterlimit:10;" width="8.504" height="12.756"/>
		</g>
		<g>
			
				<rect x="17.251" y="97.712" style="fill:none;stroke:#000000;stroke-width:0.5;stroke-miterlimit:10;" width="4.253" height="34.016"/>
			<g>
				<path style="fill:#FFFFFF;" d="M22.505,120.158v10.756h-6.504v-10.756H22.505 M23.505,119.158h-8.504v12.756h8.504V119.158
					L23.505,119.158z"/>
				
					<rect x="15.001" y="119.158" style="fill:none;stroke:#000000;stroke-width:0.5;stroke-miterlimit:10;" width="8.504" height="12.756"/>
			</g>
			
				<line style="fill:none;stroke:#717071;stroke-width:0.5;stroke-miterlimit:10;" x1="18.361" y1="99.698" x2="21.611" y2="101.448"/>
			
				<line style="fill:none;stroke:#717071;stroke-width:0.5;stroke-miterlimit:10;" x1="18.361" y1="97.958" x2="21.611" y2="99.708"/>
			
				<line style="fill:none;stroke:#717071;stroke-width:0.5;stroke-miterlimit:10;" x1="18.361" y1="117.23" x2="21.611" y2="118.98"/>
			
				<line style="fill:none;stroke:#717071;stroke-width:0.5;stroke-miterlimit:10;" x1="18.361" y1="113.752" x2="21.611" y2="115.502"/>
			
				<line style="fill:none;stroke:#717071;stroke-width:0.5;stroke-miterlimit:10;" x1="18.361" y1="115.491" x2="21.611" y2="117.241"/>
			
				<line style="fill:none;stroke:#717071;stroke-width:0.5;stroke-miterlimit:10;" x1="18.361" y1="118.97" x2="21.611" y2="120.72"/>
		</g>
	</g>
</g>
<g id="レイヤー_11">
	<text transform="matrix(1 0 0 1 319.0229 241.0732)"><tspan x="0" y="0" style="font-family:'ArialMT'; font-size:9;">φ2mm×15mm bolt ×1</tspan><tspan x="0" y="11" style="font-family:'ArialMT'; font-size:9;">φ2mm×3mm nut ×3</tspan></text>
	<text transform="matrix(1 0 0 1 299.9121 57.7915)"><tspan x="0" y="0" style="font-family:'ArialMT'; font-size:9;">φ2mm×15mm bolt ×1</tspan><tspan x="0" y="11" style="font-family:'ArialMT'; font-size:9;">φ2mm×3mm nut ×1</tspan></text>
	<text transform="matrix(1 0 0 1 68.3496 284.3726)"><tspan x="0" y="0" style="font-family:'ArialMT'; font-size:9;">φ2mm×15mm bolt ×1</tspan><tspan x="0" y="11" style="font-family:'ArialMT'; font-size:9;">φ2mm×3mm nut ×1</tspan></text>
	<text transform="matrix(1 0 0 1 15 78.0918)"><tspan x="0" y="0" style="font-family:'ArialMT'; font-size:9;">φ2mm×8mm bolt ×1</tspan><tspan x="0" y="11" style="font-family:'ArialMT'; font-size:9;">φ2mm×3mm nut ×2</tspan></text>
	<text transform="matrix(1 0 0 1 312.6602 267.4824)"><tspan x="0" y="0" style="font-family:'ArialMT'; font-size:9;">φ2mm×6mm bolt ×1</tspan><tspan x="0" y="11" style="font-family:'ArialMT'; font-size:9;">φ2mm×1.6mm nut ×1</tspan><tspan x="0" y="22" style="font-family:'ArialMT'; font-size:9;">φ2mm×3mm nut ×1</tspan></text>
	<text transform="matrix(1 0 0 1 53.0806 34.5068)"><tspan x="0" y="0" style="font-family:'ArialMT'; font-size:9;">φ2mm×6mm bolt ×1</tspan><tspan x="0" y="11" style="font-family:'ArialMT'; font-size:9;">φ2mm×1.6mm nut ×1</tspan><tspan x="0" y="22" style="font-family:'ArialMT'; font-size:9;">φ2mm×3mm nut ×1</tspan></text>
	<text transform="matrix(1 0 0 1 40.0117 109.9175)" style="font-family:'ArialMT'; font-size:8;">Top acrylic 2mm</text>
	<text transform="matrix(1 0 0 1 40.1387 141.0825)" style="font-family:'ArialMT'; font-size:8;"> Bord 1.4mm</text>
	<text transform="matrix(1 0 0 1 15 156.0825)" style="font-family:'ArialMT'; font-size:8;">Bottom acrylic 2mm</text>
	<text transform="matrix(1 0 0 1 256.8467 41.5825)" style="font-family:'ArialMT'; font-size:8;">Side acrylic 2mm</text>
	<text transform="matrix(1 0 0 1 22.3467 213.9175)" style="font-family:'ArialMT'; font-size:8;">Side acrylic 2mm</text>
	<line style="fill:none;stroke:#000000;stroke-miterlimit:10;" x1="40" y1="110.5" x2="99" y2="110.5"/>
	<line style="fill:none;stroke:#000000;stroke-miterlimit:10;" x1="42.5" y1="143.083" x2="86" y2="143.083"/>
	<line style="fill:none;stroke:#000000;stroke-miterlimit:10;" x1="15" y1="158.083" x2="84.5" y2="158.083"/>
	<line style="fill:none;stroke:#000000;stroke-miterlimit:10;" x1="21.5" y1="216.917" x2="83.5" y2="216.917"/>
	<line style="fill:none;stroke:#000000;stroke-miterlimit:10;" x1="257" y1="43.583" x2="318.5" y2="43.583"/>
	<text transform="matrix(1 0 0 1 162.5 41.4175)" style="font-family:'TimesNewRomanPS-ItalicMT'; font-size:8;">&lt;Bootom sand</text>
	<text transform="matrix(1 0 0 1 342.9468 218.0845)" style="font-family:'TimesNewRomanPS-ItalicMT'; font-size:8;">Bootom sand&gt;</text>
	<text transform="matrix(1 0 0 1 27.4976 120)" style="font-family:'TimesNewRomanPS-ItalicMT'; font-size:8;">&lt;Bootom sand</text>
	<text transform="matrix(1 0 0 1 248.5894 279.3335)" style="font-family:'TimesNewRomanPS-ItalicMT'; font-size:8;">Bootom sand&gt;</text>
	<text transform="matrix(1 0 0 1 27.4976 101.3335)" style="font-family:'TimesNewRomanPS-ItalicMT'; font-size:8;">&lt;Bord sand</text>
	<text transform="matrix(1 0 0 1 351.8335 195.6665)" style="font-family:'TimesNewRomanPS-ItalicMT'; font-size:8;">Bord sand&gt;</text>
	<text transform="matrix(1 0 0 1 355.3843 174.333)" style="font-family:'TimesNewRomanPS-ItalicMT'; font-size:8;">Top sand&gt;</text>
	<text transform="matrix(1 0 0 1 338.9468 85.667)" style="font-family:'TimesNewRomanPS-ItalicMT'; font-size:8;">Bootom sand&gt;</text>
	<text transform="matrix(1 0 0 1 351.3843 43.333)" style="font-family:'TimesNewRomanPS-ItalicMT'; font-size:8;">Top sand&gt;</text>
	<text transform="matrix(1 0 0 1 64.0977 274.418)" style="font-family:'TimesNewRomanPS-ItalicMT'; font-size:8;">&lt;Bootom sand</text>
	<text transform="matrix(1 0 0 1 64.0977 232.084)" style="font-family:'TimesNewRomanPS-ItalicMT'; font-size:8;">&lt;Top sand</text>
</g>
</svg>
